<svg width="466" height="351" viewBox="0 0 466 351" fill="none" xmlns="http://www.w3.org/2000/svg">
<g id="&#209;&#135;&#208;&#181;&#209;&#128;&#209;&#130;&#208;&#181;&#208;&#182;" opacity="0.5" clip-path="url(#clip0_21_2858)">
<path id="Vector" d="M172.227 276.292L165.889 263.223H164.034L147.403 291.442" stroke="#219CDC" stroke-width="0.4702" stroke-linejoin="round"/>
<path id="Vector_2" opacity="0.19" d="M175.255 276.305L185.548 296.028H182.127L172.228 276.292" stroke="#219CDC" stroke-width="0.483082" stroke-linejoin="round"/>
<path id="Vector_3" d="M166.604 259.732L175.248 276.305" stroke="#219CDC" stroke-width="0.4702" stroke-linejoin="round"/>
<path id="Vector_4" d="M176.853 92.9246C176.893 92.5712 175.594 92.1316 173.951 91.9426C172.307 91.7536 170.942 91.8869 170.902 92.2403C170.861 92.5937 172.16 93.0334 173.804 93.2224C175.447 93.4113 176.812 93.278 176.853 92.9246Z" stroke="#219CDC" stroke-width="0.4702" stroke-linejoin="round"/>
<path id="Vector_5" d="M180.75 90.0161C180.791 89.6627 179.492 89.223 177.848 89.0341C176.205 88.8451 174.84 88.9784 174.799 89.3318C174.759 89.6852 176.058 90.1249 177.701 90.3139C179.344 90.5028 180.71 90.3695 180.75 90.0161Z" stroke="#219CDC" stroke-width="0.4702" stroke-linejoin="round"/>
<path id="Vector_6" d="M184.606 87.1066C184.646 86.7532 183.347 86.3136 181.704 86.1246C180.06 85.9356 178.695 86.0689 178.655 86.4223C178.614 86.7757 179.913 87.2154 181.557 87.4044C183.2 87.5933 184.565 87.46 184.606 87.1066Z" stroke="#219CDC" stroke-width="0.4702" stroke-linejoin="round"/>
<path id="Vector_7" d="M221.57 63.5851C221.671 63.0792 220.044 62.329 217.937 61.9095C215.83 61.4899 214.04 61.5599 213.939 62.0658C213.838 62.5717 215.465 63.3219 217.572 63.7414C219.68 64.1609 221.47 64.091 221.57 63.5851Z" stroke="#219CDC" stroke-width="0.644109" stroke-linejoin="round"/>
<path id="Vector_8" d="M226.571 60.6165C226.672 60.1106 225.045 59.3604 222.938 58.9409C220.831 58.5213 219.041 58.5913 218.94 59.0972C218.839 59.6031 220.466 60.3533 222.573 60.7728C224.681 61.1924 226.471 61.1224 226.571 60.6165Z" stroke="#219CDC" stroke-width="0.644109" stroke-linejoin="round"/>
<path id="Vector_9" d="M231.65 57.6725C231.751 57.1666 230.124 56.4164 228.017 55.9969C225.91 55.5773 224.12 55.6473 224.019 56.1532C223.919 56.6591 225.545 57.4093 227.652 57.8289C229.76 58.2484 231.55 58.1784 231.65 57.6725Z" stroke="#219CDC" stroke-width="0.644109" stroke-linejoin="round"/>
<path id="Vector_10" d="M100.425 83.9593C100.443 83.604 99.1183 83.2486 97.4662 83.1655C95.8141 83.0824 94.4604 83.303 94.4425 83.6583C94.4246 84.0136 95.7494 84.3689 97.4015 84.4521C99.0535 84.5352 100.407 84.3145 100.425 83.9593Z" stroke="#219CDC" stroke-width="0.4702" stroke-linejoin="round"/>
<path id="Vector_11" d="M102.976 81.2978C102.993 80.9421 101.667 80.5866 100.013 80.5039C98.3585 80.4212 97.0031 80.6426 96.9853 80.9983C96.9675 81.354 98.2941 81.7094 99.9482 81.7922C101.602 81.8749 102.958 81.6535 102.976 81.2978Z" stroke="#219CDC" stroke-width="0.470787" stroke-linejoin="round"/>
<path id="Vector_12" d="M106.082 79.0334C106.1 78.6777 104.773 78.3222 103.119 78.2395C101.465 78.1568 100.11 78.3782 100.092 78.7339C100.074 79.0896 101.401 79.445 103.055 79.5277C104.709 79.6105 106.064 79.3891 106.082 79.0334Z" stroke="#219CDC" stroke-width="0.470787" stroke-linejoin="round"/>
<path id="Vector_13" d="M143.304 51.8078C143.372 51.2964 141.7 50.6525 139.57 50.3694C137.44 50.0864 135.659 50.2714 135.591 50.7827C135.523 51.294 137.194 51.938 139.324 52.2211C141.454 52.5041 143.236 52.3191 143.304 51.8078Z" stroke="#219CDC" stroke-width="0.644109" stroke-linejoin="round"/>
<path id="Vector_14" d="M148.1 48.5257C148.168 48.0144 146.496 47.3704 144.366 47.0874C142.236 46.8043 140.455 46.9894 140.387 47.5007C140.319 48.012 141.99 48.656 144.12 48.939C146.25 49.2221 148.032 49.037 148.1 48.5257Z" stroke="#219CDC" stroke-width="0.644109" stroke-linejoin="round"/>
<path id="Vector_15" d="M152.977 45.2524C153.045 44.7411 151.373 44.0971 149.243 43.8141C147.113 43.531 145.332 43.7161 145.264 44.2274C145.196 44.7387 146.867 45.3827 148.997 45.6657C151.127 45.9488 152.909 45.7637 152.977 45.2524Z" stroke="#219CDC" stroke-width="0.644109" stroke-linejoin="round"/>
<path id="Vector_16" d="M183.268 254.476L444.995 263.223" stroke="#219CDC" stroke-width="0.4702" stroke-linejoin="round"/>
<path id="Vector_17" d="M187.254 193.485L444.988 171.515" stroke="#219CDC" stroke-width="0.4702" stroke-linejoin="round"/>
<path id="Vector_18" d="M144.08 291.912L163.255 259.732" stroke="#219CDC" stroke-width="0.4702" stroke-linejoin="round"/>
<path id="Vector_19" opacity="0.24" d="M183.268 245.027V185.775" stroke="#219CDC" stroke-width="0.483082" stroke-linejoin="round"/>
<path id="Vector_20" d="M62 96.6259L183.035 107.447L450.752 -6" stroke="#219CDC" stroke-width="0.483082" stroke-linejoin="round"/>
<path id="Vector_21" d="M183.268 185.775V107.213" stroke="#219CDC" stroke-width="0.483082" stroke-linejoin="round"/>
<path id="Vector_22" d="M183.268 276.047V245.027" stroke="#219CDC" stroke-width="0.483082" stroke-linejoin="round"/>
<path id="Vector_23" d="M452.692 69.0114L183.261 136.92L-136.52 121.532" stroke="#219CDC" stroke-width="0.483082" stroke-linejoin="round"/>
<path id="Vector_24" d="M243.337 -52.738L72.3262 97.3007" stroke="#219CDC" stroke-width="0.483082" stroke-linejoin="round"/>
<path id="Vector_25" d="M87.2432 98.6339L275.278 -45.1635" stroke="#219CDC" stroke-width="0.483082" stroke-linejoin="round"/>
<path id="Vector_26" d="M58.1748 45.5207L127.165 -71.4237" stroke="#219CDC" stroke-width="0.483082" stroke-linejoin="round"/>
<path id="Vector_27" d="M92.9114 -82C92.9114 -82 73.6912 -39.9848 74.1163 -38.2714L392.242 18.6613V375.569" stroke="#219CDC" stroke-width="0.483082" stroke-linejoin="round"/>
<path id="Vector_28" d="M143.597 103.671L344.34 -36.4873" stroke="#219CDC" stroke-width="0.483082" stroke-linejoin="round"/>
<path id="Vector_29" d="M165.412 105.616L392.242 -28.7772" stroke="#219CDC" stroke-width="0.483082" stroke-linejoin="round"/>
<path id="Vector_30" d="M187.274 185.949L182.392 186.027L141.845 186.671C141.755 186.67 141.666 186.689 141.584 186.725C141.502 186.761 141.428 186.813 141.368 186.879C141.307 186.945 141.261 187.024 141.232 187.108C141.203 187.193 141.193 187.283 141.201 187.373V187.373C141.2 187.462 141.217 187.551 141.25 187.634C141.284 187.716 141.334 187.792 141.397 187.855C141.46 187.919 141.534 187.969 141.617 188.003C141.699 188.038 141.788 188.056 141.877 188.056L187.313 187.36C187.401 187.356 187.489 187.334 187.569 187.296C187.65 187.258 187.722 187.205 187.782 187.139C187.841 187.073 187.888 186.996 187.918 186.913C187.948 186.829 187.961 186.74 187.957 186.651C187.96 186.56 187.945 186.469 187.912 186.383C187.879 186.298 187.83 186.22 187.766 186.154C187.702 186.088 187.625 186.036 187.541 186.001C187.456 185.966 187.366 185.948 187.274 185.949V185.949Z" stroke="#219CDC" stroke-width="0.4702" stroke-linejoin="round"/>
<path id="Vector_31" d="M187.029 244.802L183.061 244.737L140.937 244.042C140.484 244.031 140.055 243.843 139.741 243.517C139.427 243.191 139.255 242.755 139.262 242.303L139.307 239.726C139.309 239.502 139.355 239.28 139.443 239.074C139.531 238.868 139.659 238.681 139.819 238.525C139.98 238.369 140.17 238.246 140.378 238.163C140.586 238.081 140.809 238.041 141.033 238.045L187.126 238.818C187.577 238.828 188.006 239.017 188.319 239.343C188.632 239.669 188.803 240.105 188.794 240.557L188.755 243.133C188.745 243.583 188.558 244.01 188.235 244.322C187.912 244.635 187.478 244.807 187.029 244.802V244.802Z" stroke="#219CDC" stroke-width="0.476641" stroke-linejoin="round"/>
<path id="Vector_32" d="M141.896 188.036L141.033 238.058" stroke="#219CDC" stroke-width="0.483082" stroke-linejoin="round"/>
<path id="Vector_33" d="M187.261 187.334L187.351 238.824" stroke="#219CDC" stroke-width="0.483082" stroke-linejoin="round"/>
<path id="Vector_34" d="M166.604 244.46V259.732H163.255V244.409" stroke="#219CDC" stroke-width="0.483082" stroke-linejoin="round"/>
<path id="Vector_35" d="M128.898 254.399L-85.3324 257.491C-85.4311 257.491 -85.5286 257.512 -85.6194 257.55C-85.7101 257.589 -85.7923 257.646 -85.8612 257.716C-85.93 257.787 -85.9842 257.87 -86.0206 257.962C-86.057 258.054 -86.0748 258.152 -86.0731 258.251V258.251C-86.0697 258.449 -85.988 258.639 -85.8456 258.777C-85.7033 258.916 -85.5119 258.993 -85.3131 258.991" stroke="#219CDC" stroke-width="0.483082" stroke-linejoin="round"/>
<path id="Vector_36" d="M-78.4792 95.8643L128.776 110.35C128.874 110.357 128.972 110.345 129.066 110.314C129.159 110.282 129.245 110.233 129.32 110.168C129.394 110.104 129.455 110.025 129.498 109.937C129.542 109.849 129.568 109.753 129.574 109.655V109.655C129.587 109.457 129.521 109.262 129.391 109.112C129.26 108.963 129.076 108.871 128.879 108.856L-78.3762 94.3699C-78.4743 94.3629 -78.5729 94.3754 -78.6663 94.4066C-78.7596 94.4378 -78.8459 94.4871 -78.9201 94.5518C-78.9943 94.6164 -79.055 94.6951 -79.0987 94.7833C-79.1424 94.8714 -79.1683 94.9674 -79.1749 95.0656V95.0656C-79.1819 95.1637 -79.1694 95.2623 -79.1382 95.3557C-79.107 95.449 -79.0577 95.5353 -78.993 95.6095C-78.9284 95.6837 -78.8497 95.7444 -78.7615 95.7881C-78.6734 95.8318 -78.5774 95.8577 -78.4792 95.8643V95.8643Z" stroke="#219CDC" stroke-width="0.483082" stroke-linejoin="round"/>
<path id="Vector_37" opacity="0.19" d="M153.361 319.615L137.935 313.283C137.628 313.164 137.296 313.121 136.969 313.157C136.642 313.193 136.328 313.308 136.054 313.491C135.78 313.674 135.555 313.921 135.397 314.21C135.239 314.499 135.153 314.822 135.146 315.151L134.798 322.758L130.753 318.893C129.5 317.817 127.896 317.235 126.244 317.257L86.6445 318.591" stroke="#219CDC" stroke-width="0.483082" stroke-linejoin="round"/>
<path id="Vector_38" opacity="0.19" d="M136.743 320.008L136.898 316.787C136.949 316.233 137.362 315.86 138.424 316.33L148.833 320.948" stroke="#219CDC" stroke-width="0.483082" stroke-linejoin="round"/>
<path id="Vector_39" opacity="0.19" d="M111.243 303.293L95.8162 296.962C95.5087 296.843 95.1771 296.799 94.8494 296.836C94.5217 296.872 94.2075 296.986 93.9333 297.17C93.6592 297.353 93.4332 297.599 93.2743 297.888C93.1155 298.177 93.0285 298.5 93.0208 298.83L92.6729 306.436L88.6344 302.572C87.3809 301.496 85.7776 300.914 84.1256 300.936L44.5322 302.295" stroke="#219CDC" stroke-width="0.483082" stroke-linejoin="round"/>
<path id="Vector_40" opacity="0.19" d="M94.625 303.686L94.7796 300.465C94.8311 299.911 95.2369 299.538 96.3061 300.008L106.715 304.626" stroke="#219CDC" stroke-width="0.483082" stroke-linejoin="round"/>
<path id="Vector_41" d="M-29.0186 401.539L-28.3036 353.811C-28.3036 353.811 -28.4131 347.511 -22.6032 348.658C-17.1219 349.766 -8.43283 365.952 1.38984 367.769C11.2125 369.585 88.0289 364.638 87.4943 360.909L87.7648 358.455C87.7648 358.455 93.2333 361.914 89.2978 365.037C84.0483 369.205 8.29468 373.076 8.29468 373.076C3.62884 373.444 -1.04873 372.528 -5.2316 370.429C-7.49475 369.296 -9.54871 367.787 -11.3056 365.965C-18.6742 358.236 -26.4808 351.215 -26.4808 351.215" stroke="#219CDC" stroke-width="0.483082" stroke-linejoin="round"/>
<path id="Vector_42" d="M2.05944 336.639C3.15154 336.639 4.03686 336.304 4.03686 335.891C4.03686 335.479 3.15154 335.144 2.05944 335.144C0.967345 335.144 0.0820312 335.479 0.0820312 335.891C0.0820312 336.304 0.967345 336.639 2.05944 336.639Z" stroke="#219CDC" stroke-width="0.508846" stroke-linejoin="round"/>
<path id="Vector_43" d="M88.8671 331.776C89.9592 331.776 90.8445 331.441 90.8445 331.029C90.8445 330.616 89.9592 330.281 88.8671 330.281C87.775 330.281 86.8896 330.616 86.8896 331.029C86.8896 331.441 87.775 331.776 88.8671 331.776Z" stroke="#219CDC" stroke-width="0.508846" stroke-linejoin="round"/>
<path id="Vector_44" d="M0.0892079 335.891L-2.3584 366.403" stroke="#219CDC" stroke-width="0.508846" stroke-linejoin="round"/>
<path id="Vector_45" d="M4.03791 335.891L1.39062 367.788" stroke="#219CDC" stroke-width="0.508846" stroke-linejoin="round"/>
<path id="Vector_46" d="M86.8893 331.028L82.8379 362.686" stroke="#219CDC" stroke-width="0.508846" stroke-linejoin="round"/>
<path id="Vector_47" d="M90.8445 331.028L87.4951 360.934" stroke="#219CDC" stroke-width="0.508846" stroke-linejoin="round"/>
<path id="Vector_48" d="M-1.68195 357.984C-2.38732 357.154 -2.77329 356.098 -2.77049 355.009L-1.13445 334.893C-1.13445 333.671 -0.649447 332.499 0.214044 331.634C1.07754 330.77 2.24891 330.283 3.47092 330.281C3.47092 330.281 50.7356 331.924 84.7124 326.597C87.2244 326.198 89.3178 327.737 89.3178 330.281" stroke="#219CDC" stroke-width="0.573257" stroke-linejoin="round"/>
<path id="Vector_49" d="M-2.01714 362.145C-3.34595 361.44 -4.45791 360.386 -5.23397 359.097C-6.01003 357.809 -6.42098 356.333 -6.42285 354.828V354.68L-4.78681 334.539C-4.7397 332.379 -3.84937 330.323 -2.30623 328.812C-0.763088 327.3 1.31035 326.452 3.47066 326.449H3.59949C3.67034 326.449 10.6267 326.687 20.926 326.687C38.5102 326.687 63.7399 326.043 84.1195 322.823C84.5648 322.751 85.0149 322.715 85.4658 322.713C88.6863 322.713 90.6701 324.98 91.4753 327.866C91.8473 329.302 91.9218 330.799 91.6943 332.265C91.3014 335.054 90.2966 341.689 89.0277 347.209" stroke="#219CDC" stroke-width="0.573257" stroke-linejoin="round"/>
<path id="Vector_50" d="M29.467 306.462C30.2745 306.462 30.9291 306.174 30.9291 305.818C30.9291 305.462 30.2745 305.174 29.467 305.174C28.6595 305.174 28.0049 305.462 28.0049 305.818C28.0049 306.174 28.6595 306.462 29.467 306.462Z" stroke="#219CDC" stroke-width="0.405789" stroke-linejoin="round"/>
<path id="Vector_51" d="M27.9981 305.818L25.7051 326.681" stroke="#219CDC" stroke-width="0.405789" stroke-linejoin="round"/>
<path id="Vector_52" d="M30.9295 305.818L28.9199 326.687" stroke="#219CDC" stroke-width="0.405789" stroke-linejoin="round"/>
<path id="Vector_53" d="M25.7568 325.167C23.0644 325.721 20.3721 326.226 17.6797 326.681" stroke="#219CDC" stroke-width="0.457317" stroke-linejoin="round"/>
<path id="Vector_54" d="M-37.6359 329.077C-38.1705 328.325 -38.4524 327.423 -38.4411 326.5L-37.2302 309.109C-37.2302 306.913 -35.6972 305.129 -33.8099 305.129C-33.8099 305.129 1.21028 306.572 26.3692 301.947C28.2371 301.606 29.7829 302.932 29.7829 305.129" stroke="#219CDC" stroke-width="0.457317" stroke-linejoin="round"/>
<path id="Vector_55" d="M-37.8807 332.671C-38.9114 331.978 -39.7509 331.036 -40.3216 329.933C-40.8923 328.83 -41.176 327.6 -41.1463 326.359V326.23L-39.929 308.839C-39.8646 304.974 -37.1464 301.857 -33.8099 301.857H-33.7198C-33.6682 301.857 -28.5089 302.069 -20.8762 302.069C-7.85234 302.069 10.8461 301.483 25.9505 298.713C26.2794 298.649 26.6137 298.617 26.9489 298.617C29.3192 298.617 30.8135 300.549 31.3997 303.087C31.6754 304.334 31.7299 305.621 31.5607 306.887C31.2644 309.29 30.5237 315.022 29.5833 319.769" stroke="#219CDC" stroke-width="0.457317" stroke-linejoin="round"/>
<g id="Group" opacity="0.2">
<path id="Vector_56" opacity="0.2" d="M-5.25684 340.297C10.2726 339.009 27.6765 337.115 29.7827 335.144C32.7005 332.445 28.649 329.463 28.649 329.463L28.4494 331.576C28.6619 333.328 11.651 335.441 -4.96055 336.677" stroke="#219CDC" stroke-width="0.483082" stroke-linejoin="round"/>
<path id="Vector_57" opacity="0.2" d="M24.5915 336.838L21.4805 365.16" stroke="#219CDC" stroke-width="0.483082" stroke-linejoin="round"/>
<path id="Vector_58" opacity="0.2" d="M25.7056 326.681L24.9971 333.141" stroke="#219CDC" stroke-width="0.483082" stroke-linejoin="round"/>
<path id="Vector_59" opacity="0.2" d="M28.9194 326.687L28.4492 331.621" stroke="#219CDC" stroke-width="0.483082" stroke-linejoin="round"/>
<path id="Vector_60" opacity="0.2" d="M28.05 336.052L24.7393 366.667" stroke="#219CDC" stroke-width="0.483082" stroke-linejoin="round"/>
<path id="Vector_61" opacity="0.2" d="M-29.8682 355.975C-24.2258 355.975 -15.6076 355.84 -6.68024 354.996C4.59166 353.927 16.3917 351.775 23.4061 347.498C23.9729 347.151 14.1631 338.481 14.1631 338.481" stroke="#219CDC" stroke-width="0.483082" stroke-linejoin="round"/>
<path id="Vector_62" opacity="0.2" d="M17.68 326.681C10.8782 327.827 4.05705 328.671 -2.77051 329.257" stroke="#219CDC" stroke-width="0.483082" stroke-linejoin="round"/>
<path id="Vector_63" opacity="0.2" d="M25.5315 328.285C16.4367 330.455 5.56412 331.724 -4.47754 332.471" stroke="#219CDC" stroke-width="0.483082" stroke-linejoin="round"/>
<path id="Vector_64" opacity="0.2" d="M7.13574 331.376L11.0455 335.234" stroke="#219CDC" stroke-width="0.483082" stroke-linejoin="round"/>
<path id="Vector_65" opacity="0.2" d="M21.21 329.322L25.3323 331.376" stroke="#219CDC" stroke-width="0.483082" stroke-linejoin="round"/>
</g>
<path id="Vector_66" d="M218.642 385.655L220.613 336.381C220.613 336.381 220.613 330.803 226.41 331.834C231.846 332.813 240.425 347.337 250.345 348.993C260.264 350.648 337.216 346.126 336.385 342.783L336.462 340.587C336.462 340.587 342.195 343.692 338.523 346.513C333.596 350.3 257.365 353.862 257.365 353.862C252.672 354.202 247.968 353.367 243.678 351.434C241.428 350.42 239.361 349.043 237.559 347.357C230.223 340.368 222.538 334.101 222.538 334.101" stroke="#219CDC" stroke-width="0.495964" stroke-linejoin="round"/>
<path id="Vector_67" d="M252.747 320.69C252.747 321.045 251.884 321.334 250.815 321.334C249.746 321.334 248.883 321.045 248.883 320.69C248.883 320.336 249.752 320.046 250.815 320.046C251.878 320.046 252.747 320.33 252.747 320.69Z" stroke="#219CDC" stroke-width="0.528169" stroke-linejoin="round"/>
<path id="Vector_68" d="M337.273 316.6C337.273 316.955 336.474 317.245 335.412 317.245C334.349 317.245 333.479 316.961 333.434 316.6C333.389 316.24 334.239 315.956 335.296 315.956C336.352 315.956 337.241 316.253 337.273 316.6Z" stroke="#219CDC" stroke-width="0.528169" stroke-linejoin="round"/>
<path id="Vector_69" d="M248.869 320.684L246.531 347.737" stroke="#219CDC" stroke-width="0.528169" stroke-linejoin="round"/>
<path id="Vector_70" d="M252.748 320.691L250.319 348.993" stroke="#219CDC" stroke-width="0.528169" stroke-linejoin="round"/>
<path id="Vector_71" d="M331.631 348.239L329.886 378.944" stroke="#219CDC" stroke-width="0.528169" stroke-linejoin="round"/>
<path id="Vector_72" d="M333.435 316.6L331.856 344.368" stroke="#219CDC" stroke-width="0.528169" stroke-linejoin="round"/>
<path id="Vector_73" d="M337.274 316.6L336.359 342.783" stroke="#219CDC" stroke-width="0.528169" stroke-linejoin="round"/>
<path id="Vector_74" d="M336.23 347.415L334.568 380.618" stroke="#219CDC" stroke-width="0.528169" stroke-linejoin="round"/>
<path id="Vector_75" d="M223.299 382.184L224.787 335.995" stroke="#219CDC" stroke-width="0.528169" stroke-linejoin="round"/>
<path id="Vector_76" d="M248.896 368.477C248.896 368.477 308.952 370.59 330.987 359.582C331.728 359.215 317.661 349.965 317.661 349.965" stroke="#219CDC" stroke-width="0.528169" stroke-linejoin="round"/>
<path id="Vector_77" d="M244.883 367.994C238.506 366.616 224.316 348.342 224.316 348.342" stroke="#219CDC" stroke-width="0.53461" stroke-linejoin="round"/>
<path id="Vector_78" d="M332.166 336.104C300.714 342.172 250.95 341.585 250.95 341.585" stroke="#219CDC" stroke-width="0.586139" stroke-linejoin="round"/>
<path id="Vector_79" d="M247.189 340.123C246.495 339.411 246.103 338.458 246.094 337.463L247.672 319.821C247.672 317.638 249.675 315.866 252.181 315.873C252.181 315.873 298.331 317.348 330.994 312.826C333.396 312.491 335.541 313.799 335.741 315.963" stroke="#219CDC" stroke-width="0.586139" stroke-linejoin="round"/>
<path id="Vector_80" d="M332.14 339.318C305.242 344.342 265.796 344.742 254.202 344.742C251.948 344.742 250.686 344.742 250.686 344.742" stroke="#219CDC" stroke-width="0.586139" stroke-linejoin="round"/>
<path id="Vector_81" d="M246.867 343.872C245.582 343.31 244.485 342.393 243.702 341.23C242.92 340.066 242.485 338.704 242.448 337.302V337.167L244.091 319.518C244.181 315.654 247.756 312.601 252.136 312.607H252.258C252.329 312.607 259.098 312.826 269.121 312.832C286.203 312.832 310.653 312.317 330.15 309.612C330.577 309.553 331.007 309.523 331.438 309.522C334.524 309.522 336.636 311.454 337.641 313.908C338.112 315.098 338.304 316.381 338.201 317.657C338.04 320.046 337.596 325.779 336.784 330.597" stroke="#219CDC" stroke-width="0.586139" stroke-linejoin="round"/>
<path id="Vector_82" d="M242.461 337.643L234.126 337.637" stroke="#219CDC" stroke-width="0.495964" stroke-linejoin="round"/>
<path id="Vector_83" d="M220.561 337.637C219.073 337.637 218.107 339.067 218.809 340.213L220.355 342.79" stroke="#219CDC" stroke-width="0.495964" stroke-linejoin="round"/>
<path id="Vector_84" d="M224.754 337.637H226.725" stroke="#219CDC" stroke-width="0.495964" stroke-linejoin="round"/>
<path id="Vector_85" d="M218.577 339.292L218.5 342.326C218.463 343.924 218.8 345.507 219.485 346.951L220.129 348.329" stroke="#219CDC" stroke-width="0.495964" stroke-linejoin="round"/>
<path id="Vector_86" d="M307.651 342.526L313.191 346.564" stroke="#219CDC" stroke-width="0.495964" stroke-linejoin="round"/>
<path id="Vector_87" d="M326.434 340.394L332.147 342.532" stroke="#219CDC" stroke-width="0.495964" stroke-linejoin="round"/>
<path id="Vector_88" d="M179.312 313.567L179.583 309.213" stroke="#219CDC" stroke-width="0.418671" stroke-linejoin="round"/>
<path id="Vector_89" d="M179.055 317.766L179.312 313.567" stroke="#219CDC" stroke-width="0.418671" stroke-linejoin="round"/>
<path id="Vector_90" opacity="0.19" d="M175.976 317.882L173.773 350.184C173.773 350.184 174.778 351.35 177.039 350.551L179.055 317.766" stroke="#219CDC" stroke-width="0.495964" stroke-linejoin="round"/>
<path id="Vector_91" d="M192.22 316.903C190.804 315.637 189.474 314.277 188.239 312.832C185.334 309.509 182.848 306.198 180.851 305.786C176.71 304.936 176.542 309.528 176.542 309.528L176.253 313.863L175.976 317.882" stroke="#219CDC" stroke-width="0.495964" stroke-linejoin="round"/>
<path id="Vector_92" opacity="0.19" d="M201.857 320.188C200.471 320.197 199.087 320.105 197.715 319.911C195.655 319.398 193.763 318.362 192.221 316.903" stroke="#219CDC" stroke-width="0.495964" stroke-linejoin="round"/>
<path id="Vector_93" opacity="0.18" d="M219.131 319.647C212.214 320.001 205.966 320.182 201.889 320.111" stroke="#219CDC" stroke-width="0.418671" stroke-linejoin="round"/>
<path id="Vector_94" opacity="0.18" d="M201.335 323.763L202.681 323.827C202.681 323.827 210.05 323.447 219.583 322.81" stroke="#219CDC" stroke-width="0.418671" stroke-linejoin="round"/>
<path id="Vector_95" opacity="0.19" d="M187.312 317.232C187.712 317.67 188.111 318.108 188.511 318.559C189.742 319.919 191.202 321.053 192.826 321.908C195.506 323.338 197.618 323.634 201.309 323.84" stroke="#219CDC" stroke-width="0.495964" stroke-linejoin="round"/>
<path id="Vector_96" d="M183.461 313.135C184.672 314.385 185.986 315.776 187.326 317.232" stroke="#219CDC" stroke-width="0.418671" stroke-linejoin="round"/>
<path id="Vector_97" d="M177.979 307.654C177.979 307.654 180.363 309.928 183.461 313.135" stroke="#219CDC" stroke-width="0.418671" stroke-linejoin="round"/>
<path id="Vector_98" d="M201.154 296.601C201.154 296.897 200.317 297.135 199.305 297.135C198.294 297.135 197.476 296.891 197.482 296.594C197.489 296.298 198.32 296.066 199.337 296.066C200.355 296.066 201.16 296.305 201.154 296.601Z" stroke="#219CDC" stroke-width="0.476641" stroke-linejoin="round"/>
<path id="Vector_99" d="M261.958 293.277C261.958 293.567 261.352 293.805 260.579 293.805C259.806 293.805 259.175 293.567 259.162 293.271C259.149 292.975 259.774 292.743 260.547 292.749C261.32 292.756 261.951 292.968 261.958 293.277Z" stroke="#219CDC" stroke-width="0.418671" stroke-linejoin="round"/>
<path id="Vector_100" opacity="0.19" d="M195.261 316.652L195.01 318.874" stroke="#219CDC" stroke-width="0.495964" stroke-linejoin="round"/>
<path id="Vector_101" d="M197.483 296.594L195.815 311.634L195.261 316.652" stroke="#219CDC" stroke-width="0.418671" stroke-linejoin="round"/>
<path id="Vector_102" opacity="0.19" d="M199.048 316.22L198.636 319.911" stroke="#219CDC" stroke-width="0.495964" stroke-linejoin="round"/>
<path id="Vector_103" d="M201.206 296.601L199.376 313.232L199.048 316.22" stroke="#219CDC" stroke-width="0.418671" stroke-linejoin="round"/>
<path id="Vector_104" opacity="0.19" d="M194.597 322.726L189.444 368.799C190 369.099 190.616 369.271 191.247 369.303C191.878 369.334 192.507 369.223 193.09 368.979L198.075 323.692" stroke="#219CDC" stroke-width="0.495964" stroke-linejoin="round"/>
<path id="Vector_105" d="M259.163 293.251L257.488 310.655" stroke="#219CDC" stroke-width="0.418671" stroke-linejoin="round"/>
<path id="Vector_106" d="M261.958 293.258L260.605 310.662" stroke="#219CDC" stroke-width="0.418671" stroke-linejoin="round"/>
<path id="Vector_107" opacity="0.19" d="M199.055 336.11C200.059 336.11 201.296 336.11 202.72 336.149" stroke="#219CDC" stroke-width="0.418671" stroke-linejoin="round"/>
<path id="Vector_108" opacity="0.19" d="M196.748 336.053C197.244 336.053 198.036 336.091 199.054 336.111" stroke="#219CDC" stroke-width="0.495964" stroke-linejoin="round"/>
<path id="Vector_109" opacity="0.19" d="M198.636 340.143L196.298 340.02" stroke="#219CDC" stroke-width="0.495964" stroke-linejoin="round"/>
<path id="Vector_110" opacity="0.19" d="M202.217 340.297C200.826 340.259 199.641 340.207 198.636 340.168" stroke="#219CDC" stroke-width="0.418671" stroke-linejoin="round"/>
<path id="Vector_111" opacity="0.19" d="M192.82 339.486C186.881 337.875 178.714 323.537 178.714 323.537" stroke="#219CDC" stroke-width="0.495964" stroke-linejoin="round"/>
<path id="Vector_112" opacity="0.19" d="M193.245 335.434C188.685 334.301 178.92 319.331 178.92 319.331" stroke="#219CDC" stroke-width="0.495964" stroke-linejoin="round"/>
<path id="Vector_113" d="M200.008 313.889H199.261" stroke="#219CDC" stroke-width="0.4702" stroke-linejoin="round"/>
<path id="Vector_114" d="M229.778 312.832C219.878 313.58 209.946 313.863 200.021 313.857" stroke="#219CDC" stroke-width="0.4702" stroke-linejoin="round"/>
<path id="Vector_115" d="M257.495 309.38C254.892 309.844 252.288 310.273 249.682 310.668" stroke="#219CDC" stroke-width="0.4702" stroke-linejoin="round"/>
<path id="Vector_116" d="M195.705 312.601C195.463 312.302 195.278 311.961 195.158 311.596C195.03 311.214 194.973 310.813 194.99 310.411L196.639 295.854C196.682 294.988 197.055 294.171 197.682 293.572C198.309 292.973 199.141 292.637 200.008 292.633C200.008 292.633 233.547 293.876 257.508 290.14C257.901 290.051 258.308 290.049 258.702 290.136C259.095 290.223 259.465 290.395 259.784 290.642C260.103 290.888 260.363 291.202 260.546 291.56C260.73 291.919 260.831 292.314 260.844 292.717" stroke="#219CDC" stroke-width="0.495964" stroke-linejoin="round"/>
<path id="Vector_117" opacity="0.19" d="M201.296 316.42H199.016" stroke="#219CDC" stroke-width="0.495964" stroke-linejoin="round"/>
<path id="Vector_118" opacity="0.21" d="M217.161 316.111C210.301 316.369 204.594 316.42 201.303 316.42" stroke="#219CDC" stroke-width="0.4702" stroke-linejoin="round"/>
<path id="Vector_119" d="M228.11 315.563C224.245 315.808 220.58 315.989 217.16 316.111" stroke="#219CDC" stroke-width="0.4702" stroke-linejoin="round"/>
<path id="Vector_120" d="M195.364 315.699C194.653 315.305 194.033 314.768 193.541 314.122C193.05 313.475 192.699 312.733 192.51 311.944C192.385 311.406 192.33 310.853 192.349 310.301V310.192L194.037 295.628C194.13 294.085 194.807 292.635 195.93 291.573C197.054 290.511 198.539 289.916 200.085 289.909H200.175C200.227 289.909 205.148 290.089 212.446 290.102C224.883 290.102 242.719 289.69 257.024 287.467C257.337 287.416 257.654 287.39 257.971 287.39C260.219 287.39 261.688 288.988 262.325 291.036C262.622 292.042 262.711 293.098 262.589 294.14C262.377 296.118 261.829 300.865 261.057 304.846" stroke="#219CDC" stroke-width="0.495964" stroke-linejoin="round"/>
<path id="Vector_121" d="M192.349 310.578L186.308 310.571" stroke="#219CDC" stroke-width="0.399348" stroke-linejoin="round"/>
<path id="Vector_122" d="M176.478 310.559C176.228 310.562 175.982 310.628 175.764 310.75C175.546 310.873 175.362 311.048 175.229 311.261C175.097 311.473 175.019 311.715 175.005 311.965C174.99 312.215 175.038 312.464 175.145 312.691L175.737 313.863L176.195 314.784" stroke="#219CDC" stroke-width="0.399348" stroke-linejoin="round"/>
<path id="Vector_123" d="M179.519 310.565H180.942" stroke="#219CDC" stroke-width="0.399348" stroke-linejoin="round"/>
<path id="Vector_124" opacity="0.19" d="M175.3 317.753C175.351 317.902 175.403 318.05 175.461 318.198L175.892 319.331" stroke="#219CDC" stroke-width="0.495964" stroke-linejoin="round"/>
<path id="Vector_125" d="M174.996 311.956L174.887 313.998V314.449C174.822 315.583 174.969 316.718 175.319 317.798" stroke="#219CDC" stroke-width="0.399348" stroke-linejoin="round"/>
<path id="Vector_126" d="M244.451 317.844C239.298 318.365 227.64 319.132 227.64 319.132C224.748 319.319 221.843 319.486 219.105 319.628" stroke="#219CDC" stroke-width="0.495964" stroke-linejoin="round"/>
<path id="Vector_127" opacity="0.19" d="M243.962 320.974C253.07 320.072 260.412 319.042 261.688 317.966C264.464 315.654 260.4 313.096 260.4 313.096L260.264 314.906C260.432 315.866 253.649 316.948 244.458 317.876" stroke="#219CDC" stroke-width="0.495964" stroke-linejoin="round"/>
<path id="Vector_128" d="M219.582 322.81C222.062 322.649 227.344 322.346 227.344 322.346C232.922 321.934 238.731 321.457 243.962 320.942" stroke="#219CDC" stroke-width="0.495964" stroke-linejoin="round"/>
<path id="Vector_129" opacity="0.19" d="M256.644 319.351L254.229 344.432" stroke="#219CDC" stroke-width="0.495964" stroke-linejoin="round"/>
<path id="Vector_130" opacity="0.19" d="M257.353 312.021L256.953 316.169" stroke="#219CDC" stroke-width="0.495964" stroke-linejoin="round"/>
<path id="Vector_131" d="M257.488 310.655L257.353 312.021" stroke="#219CDC" stroke-width="0.495964" stroke-linejoin="round"/>
<path id="Vector_132" opacity="0.19" d="M260.418 313.064L260.283 314.874" stroke="#219CDC" stroke-width="0.495964" stroke-linejoin="round"/>
<path id="Vector_133" d="M260.606 310.662L260.419 313.064" stroke="#219CDC" stroke-width="0.495964" stroke-linejoin="round"/>
<path id="Vector_134" opacity="0.19" d="M260.012 318.674L257.539 345.798" stroke="#219CDC" stroke-width="0.495964" stroke-linejoin="round"/>
<path id="Vector_135" opacity="0.19" d="M242.474 333.019C247.665 331.956 252.316 330.532 255.749 328.645C256.303 328.342 246.454 320.755 246.454 320.755" stroke="#219CDC" stroke-width="0.495964" stroke-linejoin="round"/>
<path id="Vector_136" d="M231.176 334.764C235.04 334.326 238.905 333.76 242.473 333.019" stroke="#219CDC" stroke-width="0.495964" stroke-linejoin="round"/>
<path id="Vector_137" opacity="0.19" d="M220.684 335.653C222.403 335.55 224.155 335.428 225.92 335.28C227.685 335.131 229.424 334.958 231.176 334.764" stroke="#219CDC" stroke-width="0.495964" stroke-linejoin="round"/>
<path id="Vector_138" d="M217.038 335.846C218.23 335.795 219.447 335.73 220.684 335.653" stroke="#219CDC" stroke-width="0.495964" stroke-linejoin="round"/>
<path id="Vector_139" opacity="0.18" d="M202.719 336.149C206.448 336.149 211.479 336.104 217.037 335.846" stroke="#219CDC" stroke-width="0.418671" stroke-linejoin="round"/>
<path id="Vector_140" opacity="0.18" d="M216.542 340.252C210.932 340.426 205.92 340.374 202.217 340.252" stroke="#219CDC" stroke-width="0.418671" stroke-linejoin="round"/>
<path id="Vector_141" d="M218.565 340.175L216.542 340.252" stroke="#219CDC" stroke-width="0.495964" stroke-linejoin="round"/>
<path id="Vector_142" opacity="0.19" d="M255.285 333.431C251.179 335.251 246.882 336.605 242.474 337.469C234.59 339.017 226.594 339.922 218.564 340.175" stroke="#219CDC" stroke-width="0.495964" stroke-linejoin="round"/>
<path id="Vector_143" d="M249.681 310.668C243.073 311.634 236.438 312.343 229.778 312.852" stroke="#219CDC" stroke-width="0.495964" stroke-linejoin="round"/>
<path id="Vector_144" d="M247.704 313.663C241.308 314.552 234.532 315.151 228.11 315.596" stroke="#219CDC" stroke-width="0.495964" stroke-linejoin="round"/>
<path id="Vector_145" opacity="0.18" d="M257.334 312.021C254.293 312.665 251.041 313.2 247.672 313.663" stroke="#219CDC" stroke-width="0.418671" stroke-linejoin="round"/>
<path id="Vector_146" d="M239.466 314.642L243.337 317.96" stroke="#219CDC" stroke-width="0.495964" stroke-linejoin="round"/>
<path id="Vector_147" opacity="0.19" d="M253.173 312.903L257.237 314.662" stroke="#219CDC" stroke-width="0.495964" stroke-linejoin="round"/>
<path id="Vector_148" d="M275.278 314.494L260.187 309.116C259.908 308.995 259.605 308.941 259.302 308.959C258.999 308.977 258.704 309.066 258.442 309.219C258.18 309.372 257.957 309.585 257.793 309.84C257.628 310.095 257.526 310.385 257.494 310.687L257.23 317.129L253.256 313.818C251.98 312.892 250.44 312.401 248.863 312.42L210.217 313.522" stroke="#219CDC" stroke-width="0.483082" stroke-linejoin="round"/>
<path id="Vector_149" opacity="0.19" d="M259.104 314.816L259.22 312.066C259.266 311.596 259.652 311.28 260.695 311.679L270.898 315.615" stroke="#219CDC" stroke-width="0.495964" stroke-linejoin="round"/>
<path id="Vector_150" opacity="0.19" d="M218.146 297.322L203.428 292.073C203.15 291.962 202.851 291.915 202.552 291.934C202.253 291.954 201.963 292.04 201.702 292.186C201.44 292.333 201.215 292.536 201.043 292.78C200.87 293.024 200.754 293.304 200.703 293.599L200.182 299.899L196.381 296.678C195.141 295.764 193.632 295.286 192.092 295.319L153.838 296.363" stroke="#219CDC" stroke-width="0.495964" stroke-linejoin="round"/>
<path id="Vector_151" opacity="0.19" d="M202.133 297.618L202.352 294.939C202.416 294.488 202.816 294.179 203.833 294.565L213.765 298.43" stroke="#219CDC" stroke-width="0.495964" stroke-linejoin="round"/>
<path id="Vector_152" opacity="0.19" d="M141.078 295.57L141.143 294.907" stroke="#219CDC" stroke-width="0.495964" stroke-linejoin="round"/>
<path id="Vector_153" opacity="0.19" d="M135.597 318.301L133.787 334.803C133.787 334.803 134.734 335.937 137.008 335.157L138.734 318.41L141.085 295.583" stroke="#219CDC" stroke-width="0.495964" stroke-linejoin="round"/>
<path id="Vector_154" opacity="0.19" d="M138.019 296.221L135.597 318.301" stroke="#219CDC" stroke-width="0.495964" stroke-linejoin="round"/>
<path id="Vector_155" opacity="0.19" d="M139.352 292.356C138.656 293.159 138.228 294.158 138.128 295.216L138.019 296.221" stroke="#219CDC" stroke-width="0.495964" stroke-linejoin="round"/>
<path id="Vector_156" d="M142.894 291.68C142.776 291.635 142.656 291.599 142.533 291.57C141.981 291.41 141.396 291.398 140.837 291.536C140.278 291.674 139.766 291.957 139.352 292.356" stroke="#219CDC" stroke-width="0.4702" stroke-linejoin="round"/>
<path id="Vector_157" opacity="0.15" d="M178.108 308.382C179.989 308.266 181.973 308.13 184.034 307.995" stroke="#219CDC" stroke-width="0.418671" stroke-linejoin="round"/>
<path id="Vector_158" opacity="0.15" d="M176.717 308.465L178.082 308.382" stroke="#219CDC" stroke-width="0.418671" stroke-linejoin="round"/>
<path id="Vector_159" d="M157.761 308.736C159.621 309.036 161.5 309.206 163.384 309.245C163.384 309.245 168.975 308.961 176.717 308.478" stroke="#219CDC" stroke-width="0.418671" stroke-linejoin="round"/>
<path id="Vector_160" opacity="0.19" d="M142.798 296.601C144.692 298.533 147.184 301.213 149.606 304.014C150.775 305.345 152.176 306.451 153.741 307.28C154.998 307.967 156.354 308.454 157.761 308.723" stroke="#219CDC" stroke-width="0.495964" stroke-linejoin="round"/>
<path id="Vector_161" opacity="0.19" d="M139.622 293.387C139.622 293.387 140.91 294.675 142.798 296.607" stroke="#219CDC" stroke-width="0.495964" stroke-linejoin="round"/>
<path id="Vector_162" d="M162.984 282.63C162.984 282.92 162.134 283.152 161.136 283.145C160.137 283.139 159.332 282.914 159.358 282.624C159.384 282.334 160.208 282.102 161.207 282.108C162.205 282.115 163.004 282.327 162.984 282.63Z" stroke="#219CDC" stroke-width="0.476641" stroke-linejoin="round"/>
<path id="Vector_163" d="M223.292 279.403C223.292 279.687 222.648 279.918 221.901 279.918C221.154 279.918 220.522 279.68 220.522 279.397C220.522 279.113 221.167 278.881 221.907 278.888C222.648 278.894 223.292 279.107 223.292 279.403Z" stroke="#219CDC" stroke-width="0.418671" stroke-linejoin="round"/>
<path id="Vector_164" opacity="0.19" d="M157.89 292.182L156.028 304.324" stroke="#219CDC" stroke-width="0.495964" stroke-linejoin="round"/>
<path id="Vector_165" d="M159.358 282.624L157.89 292.182" stroke="#219CDC" stroke-width="0.418671" stroke-linejoin="round"/>
<path id="Vector_166" d="M163.036 282.63L159.57 305.341" stroke="#219CDC" stroke-width="0.418671" stroke-linejoin="round"/>
<path id="Vector_167" d="M157.432 318.533L158.082 314.282L158.887 309.019" stroke="#219CDC" stroke-width="0.4702" stroke-linejoin="round"/>
<path id="Vector_168" opacity="0.15" d="M153.864 318.455L148.55 352.922C149.099 353.217 149.708 353.385 150.33 353.415C150.953 353.445 151.575 353.336 152.15 353.096L157.432 318.533" stroke="#219CDC" stroke-width="0.418671" stroke-linejoin="round"/>
<path id="Vector_169" opacity="0.19" d="M155.467 307.75L154.443 314.352V314.681L153.863 318.455" stroke="#219CDC" stroke-width="0.495964" stroke-linejoin="round"/>
<path id="Vector_170" opacity="0.19" d="M219.092 289.664L218.158 296.356" stroke="#219CDC" stroke-width="0.418671" stroke-linejoin="round"/>
<path id="Vector_171" d="M220.523 279.397L219.112 289.522L219.093 289.664" stroke="#219CDC" stroke-width="0.418671" stroke-linejoin="round"/>
<path id="Vector_172" opacity="0.19" d="M222.081 289.445L221.25 296.362" stroke="#219CDC" stroke-width="0.418671" stroke-linejoin="round"/>
<path id="Vector_173" d="M223.292 279.403L222.081 289.445" stroke="#219CDC" stroke-width="0.418671" stroke-linejoin="round"/>
<path id="Vector_174" opacity="0.15" d="M157.064 321.058C158.037 321.058 160.118 321.141 162.958 321.154" stroke="#219CDC" stroke-width="0.418671" stroke-linejoin="round"/>
<path id="Vector_175" opacity="0.15" d="M162.301 325.167C159.461 325.083 157.399 324.974 156.459 324.916" stroke="#219CDC" stroke-width="0.418671" stroke-linejoin="round"/>
<path id="Vector_176" opacity="0.19" d="M140.749 310.668C140.105 309.56 139.719 308.858 139.719 308.858" stroke="#219CDC" stroke-width="0.495964" stroke-linejoin="round"/>
<path id="Vector_177" opacity="0.19" d="M143.507 315.035C142.373 313.367 141.42 311.815 140.75 310.675" stroke="#219CDC" stroke-width="0.495964" stroke-linejoin="round"/>
<path id="Vector_178" opacity="0.15" d="M145.903 318.353C145.04 317.258 144.228 316.124 143.487 315.035" stroke="#219CDC" stroke-width="0.418671" stroke-linejoin="round"/>
<path id="Vector_179" opacity="0.15" d="M153.039 324.394C150.74 323.75 148.176 321.219 145.922 318.352" stroke="#219CDC" stroke-width="0.418671" stroke-linejoin="round"/>
<path id="Vector_180" opacity="0.19" d="M141.284 306.63C140.537 305.496 140.086 304.781 140.086 304.781" stroke="#219CDC" stroke-width="0.495964" stroke-linejoin="round"/>
<path id="Vector_181" opacity="0.19" d="M147.403 315.035C145.223 312.349 143.181 309.555 141.284 306.662" stroke="#219CDC" stroke-width="0.495964" stroke-linejoin="round"/>
<path id="Vector_182" opacity="0.15" d="M149.767 317.663C148.994 316.878 148.209 315.982 147.423 315.035" stroke="#219CDC" stroke-width="0.418671" stroke-linejoin="round"/>
<path id="Vector_183" opacity="0.15" d="M153.632 320.452C152.544 320.182 151.185 319.119 149.768 317.663" stroke="#219CDC" stroke-width="0.418671" stroke-linejoin="round"/>
<path id="Vector_184" d="M190.655 298.43C180.587 299.171 170.507 299.441 160.439 299.416" stroke="#219CDC" stroke-width="0.4702" stroke-linejoin="round"/>
<path id="Vector_185" opacity="0.19" d="M218.216 295.107C215.64 295.536 213.046 295.948 210.436 296.343" stroke="#219CDC" stroke-width="0.4702" stroke-linejoin="round"/>
<path id="Vector_186" d="M157.064 291.442L158.546 281.928C158.618 281.055 159.015 280.24 159.657 279.644C160.299 279.048 161.141 278.714 162.018 278.708C162.018 278.708 195.157 279.938 219.015 276.311C220.773 276.041 222.235 277.104 222.235 278.856" stroke="#219CDC" stroke-width="0.4702" stroke-linejoin="round"/>
<path id="Vector_187" opacity="0.19" d="M156.955 298.243C156.481 297.636 156.251 296.873 156.311 296.105L157.039 291.442" stroke="#219CDC" stroke-width="0.495964" stroke-linejoin="round"/>
<path id="Vector_188" d="M188.904 301.122C176.942 301.87 166.282 301.947 161.709 301.94H160.073" stroke="#219CDC" stroke-width="0.4702" stroke-linejoin="round"/>
<path id="Vector_189" opacity="0.17" d="M222.184 289.599L221.907 290.701" stroke="#219CDC" stroke-width="0.4702" stroke-linejoin="round"/>
<path id="Vector_190" d="M154.604 290.392L155.989 281.683C156.166 280.155 156.895 278.745 158.04 277.719C159.186 276.692 160.667 276.12 162.205 276.112H162.295C162.34 276.112 167.203 276.292 174.424 276.311C186.733 276.311 204.394 275.918 218.648 273.735C218.957 273.689 219.27 273.665 219.582 273.664C221.811 273.664 223.196 275.223 223.743 277.22C224 278.208 224.047 279.239 223.878 280.247C223.621 281.992 222.99 285.967 222.184 289.58" stroke="#219CDC" stroke-width="0.4702" stroke-linejoin="round"/>
<path id="Vector_191" opacity="0.19" d="M156.499 301.238C155.579 300.721 154.828 299.95 154.337 299.016C153.846 298.082 153.635 297.027 153.729 295.976V295.867L154.592 290.392" stroke="#219CDC" stroke-width="0.495964" stroke-linejoin="round"/>
<path id="Vector_192" opacity="0.19" d="M153.715 296.247L147.744 296.234" stroke="#219CDC" stroke-width="0.495964" stroke-linejoin="round"/>
<path id="Vector_193" opacity="0.19" d="M138.019 296.221C137.772 296.221 137.528 296.282 137.31 296.398C137.092 296.514 136.906 296.681 136.767 296.886C136.629 297.09 136.542 297.326 136.516 297.571C136.489 297.817 136.523 298.065 136.614 298.295L137.574 300.33" stroke="#219CDC" stroke-width="0.495964" stroke-linejoin="round"/>
<path id="Vector_194" opacity="0.19" d="M141.026 296.227H142.437" stroke="#219CDC" stroke-width="0.495964" stroke-linejoin="round"/>
<path id="Vector_195" opacity="0.19" d="M136.499 297.548L136.274 299.976C136.148 301.223 136.298 302.483 136.712 303.667L137.098 304.775" stroke="#219CDC" stroke-width="0.495964" stroke-linejoin="round"/>
<g id="Group_2" opacity="0.2">
<path id="Vector_196" opacity="0.2" d="M194.146 307.254C207.389 306.211 220.252 304.858 222.024 303.448C224.858 301.193 220.967 298.707 220.967 298.707L220.755 300.465C220.929 301.754 208.413 303.209 194.494 304.253" stroke="#219CDC" stroke-width="0.495964" stroke-linejoin="round"/>
<path id="Vector_197" opacity="0.2" d="M216.98 304.826L213.572 329.244" stroke="#219CDC" stroke-width="0.495964" stroke-linejoin="round"/>
<path id="Vector_198" opacity="0.2" d="M218.158 296.356L217.411 301.721" stroke="#219CDC" stroke-width="0.495964" stroke-linejoin="round"/>
<path id="Vector_199" opacity="0.2" d="M221.25 296.363L220.754 300.466" stroke="#219CDC" stroke-width="0.495964" stroke-linejoin="round"/>
<path id="Vector_200" opacity="0.2" d="M220.336 304.169L216.8 330.578" stroke="#219CDC" stroke-width="0.495964" stroke-linejoin="round"/>
<path id="Vector_201" opacity="0.2" d="M177.251 320.864C180.046 320.736 182.977 320.562 185.946 320.317C197.102 319.402 208.767 317.547 215.717 313.876C216.271 313.58 206.835 306.185 206.835 306.185" stroke="#219CDC" stroke-width="0.495964" stroke-linejoin="round"/>
<path id="Vector_202" opacity="0.2" d="M215.067 318.533C204.645 323.215 189.116 324.755 176.568 325.148" stroke="#219CDC" stroke-width="0.495964" stroke-linejoin="round"/>
<path id="Vector_203" opacity="0.2" d="M210.436 296.343C205.373 297.065 200.297 297.646 195.209 298.089" stroke="#219CDC" stroke-width="0.495964" stroke-linejoin="round"/>
<path id="Vector_204" opacity="0.2" d="M217.972 297.683C210.355 299.134 202.66 300.138 194.926 300.691" stroke="#219CDC" stroke-width="0.495964" stroke-linejoin="round"/>
<path id="Vector_205" opacity="0.2" d="M200.169 300.227L203.866 303.461" stroke="#219CDC" stroke-width="0.495964" stroke-linejoin="round"/>
<path id="Vector_206" opacity="0.2" d="M213.798 298.54L217.753 300.253" stroke="#219CDC" stroke-width="0.495964" stroke-linejoin="round"/>
</g>
<g id="Group_3" opacity="0.15">
<path id="Vector_207" opacity="0.15" d="M162.959 321.154C166.675 321.154 171.7 321.116 177.252 320.865" stroke="#219CDC" stroke-width="0.418671" stroke-linejoin="round"/>
<path id="Vector_208" opacity="0.15" d="M176.569 325.148C170.978 325.322 165.98 325.27 162.302 325.148" stroke="#219CDC" stroke-width="0.418671" stroke-linejoin="round"/>
</g>
<path id="Vector_209" opacity="0.19" d="M158.315 305.264C151.674 303.673 146.605 293.026 142.895 291.68" stroke="#219CDC" stroke-width="0.495964" stroke-linejoin="round"/>
<path id="Vector_210" d="M193.032 304.362C191.456 304.478 189.874 304.586 188.285 304.684C186.269 304.82 184.266 304.936 182.295 305.045L180.51 305.135C170.16 305.663 161.187 305.818 158.656 305.335L158.314 305.264" stroke="#219CDC" stroke-width="0.4702" stroke-linejoin="round"/>
<path id="Vector_211" opacity="0.19" d="M194.494 304.227L193.032 304.337" stroke="#219CDC" stroke-width="0.495964" stroke-linejoin="round"/>
<path id="Vector_212" opacity="0.19" d="M192.685 307.364L194.147 307.254" stroke="#219CDC" stroke-width="0.495964" stroke-linejoin="round"/>
<path id="Vector_213" d="M184.008 307.995L185.94 307.86L187.872 307.725C189.463 307.609 191.093 307.493 192.684 307.364" stroke="#219CDC" stroke-width="0.4702" stroke-linejoin="round"/>
<path id="Vector_214" d="M193.741 298.218C192.716 298.301 191.686 298.385 190.655 298.456" stroke="#219CDC" stroke-width="0.4702" stroke-linejoin="round"/>
<path id="Vector_215" opacity="0.19" d="M195.209 298.089L193.74 298.218" stroke="#219CDC" stroke-width="0.495964" stroke-linejoin="round"/>
<path id="Vector_216" d="M193.444 300.807C191.911 300.923 190.408 301.028 188.936 301.122" stroke="#219CDC" stroke-width="0.4702" stroke-linejoin="round"/>
<path id="Vector_217" opacity="0.19" d="M194.926 300.691L193.444 300.807" stroke="#219CDC" stroke-width="0.495964" stroke-linejoin="round"/>
<g id="Group_4">
<path id="Vector_218" d="M98.6377 393.307L99.3527 345.579C99.3527 345.579 99.2432 339.28 105.047 340.426C110.534 341.534 119.217 357.72 129.046 359.537C138.875 361.353 215.679 356.387 215.151 352.684L215.421 350.236C215.421 350.236 220.89 353.688 216.954 356.812C211.705 360.98 135.951 364.851 135.951 364.851C131.285 365.219 126.608 364.303 122.425 362.203C120.161 361.071 118.108 359.561 116.351 357.74C108.982 350.01 101.175 342.99 101.175 342.99" stroke="#219CDC" stroke-width="0.483082" stroke-linejoin="round"/>
<path id="Vector_219" d="M129.716 328.407C130.808 328.407 131.693 328.072 131.693 327.66C131.693 327.247 130.808 326.913 129.716 326.913C128.624 326.913 127.738 327.247 127.738 327.66C127.738 328.072 128.624 328.407 129.716 328.407Z" stroke="#219CDC" stroke-width="0.508846" stroke-linejoin="round"/>
<path id="Vector_220" d="M216.522 323.55C217.614 323.55 218.5 323.216 218.5 322.803C218.5 322.391 217.614 322.056 216.522 322.056C215.43 322.056 214.545 322.391 214.545 322.803C214.545 323.216 215.43 323.55 216.522 323.55Z" stroke="#219CDC" stroke-width="0.508846" stroke-linejoin="round"/>
<path id="Vector_221" d="M127.739 327.66L125.298 358.171" stroke="#219CDC" stroke-width="0.508846" stroke-linejoin="round"/>
<path id="Vector_222" d="M131.693 327.66L129.046 359.556" stroke="#219CDC" stroke-width="0.508846" stroke-linejoin="round"/>
<path id="Vector_223" d="M214.546 322.803L210.494 354.455" stroke="#219CDC" stroke-width="0.508846" stroke-linejoin="round"/>
<path id="Vector_224" d="M218.5 322.803L215.15 352.703" stroke="#219CDC" stroke-width="0.508846" stroke-linejoin="round"/>
<path id="Vector_225" d="M102.947 394.763L103.527 345.141" stroke="#219CDC" stroke-width="0.508846" stroke-linejoin="round"/>
<path id="Vector_226" d="M211.512 345.218C179.461 352.026 129.71 351.402 129.71 351.402" stroke="#219CDC" stroke-width="0.573257" stroke-linejoin="round"/>
<path id="Vector_227" d="M125.974 349.753C125.268 348.922 124.882 347.867 124.886 346.777L126.522 326.661C126.522 325.439 127.007 324.267 127.87 323.403C128.734 322.538 129.905 322.051 131.127 322.05C131.127 322.05 178.392 323.718 212.349 318.365C214.861 317.966 216.955 319.505 216.955 322.05" stroke="#219CDC" stroke-width="0.573257" stroke-linejoin="round"/>
<path id="Vector_228" d="M211.215 348.832C183.866 354.435 144.485 354.873 132.943 354.873C130.701 354.873 129.445 354.873 129.445 354.873" stroke="#219CDC" stroke-width="0.573257" stroke-linejoin="round"/>
<path id="Vector_229" d="M125.639 353.914C124.309 353.21 123.196 352.157 122.42 350.867C121.643 349.578 121.233 348.102 121.233 346.597V346.448L122.869 326.314C122.917 324.153 123.807 322.097 125.35 320.584C126.893 319.071 128.966 318.222 131.127 318.217H131.256C131.327 318.217 138.283 318.462 148.582 318.462C166.16 318.462 191.396 317.786 211.776 314.597C212.221 314.526 212.671 314.489 213.122 314.488C216.343 314.488 218.326 316.755 219.132 319.641C219.504 321.077 219.578 322.574 219.351 324.04C218.951 326.829 217.953 333.47 216.684 338.983" stroke="#219CDC" stroke-width="0.573257" stroke-linejoin="round"/>
<path id="Vector_230" d="M121.24 346.977H112.898" stroke="#219CDC" stroke-width="0.483082" stroke-linejoin="round"/>
<path id="Vector_231" d="M99.3273 346.977C98.987 346.974 98.6519 347.062 98.3562 347.23C98.0605 347.399 97.8146 347.642 97.6433 347.937C97.472 348.231 97.3815 348.565 97.3809 348.905C97.3802 349.246 97.4696 349.58 97.6398 349.875L99.2436 352.703" stroke="#219CDC" stroke-width="0.483082" stroke-linejoin="round"/>
<path id="Vector_232" d="M103.526 346.977H105.491" stroke="#219CDC" stroke-width="0.483082" stroke-linejoin="round"/>
<path id="Vector_233" d="M97.3887 348.832V352.207C97.3867 353.965 97.7577 355.704 98.4772 357.308L99.1536 358.828" stroke="#219CDC" stroke-width="0.483082" stroke-linejoin="round"/>
<path id="Vector_234" d="M205.386 350.036L210.944 352.419" stroke="#219CDC" stroke-width="0.483082" stroke-linejoin="round"/>
<path id="Vector_235" d="M122.714 328.491C109.027 329.528 95.6101 330.017 92.3187 329.309C85.0339 327.743 78.5992 313.766 74.5349 312.813C70.2387 311.808 70.316 317.245 70.316 317.245L69.6719 363.215C69.6719 363.215 70.7153 364.503 72.8924 363.614L73.4206 316.864" stroke="#219CDC" stroke-width="0.405789" stroke-linejoin="round"/>
<path id="Vector_236" d="M71.6689 315.029C71.6689 315.029 77.4659 321.083 82.9087 327.756C84.1749 329.298 85.7008 330.605 87.4174 331.621C90.4963 333.45 92.8086 333.663 97.4204 333.901C97.4204 333.901 109.24 333.199 122.405 332.091" stroke="#219CDC" stroke-width="0.405789" stroke-linejoin="round"/>
<path id="Vector_237" d="M93.2405 302.424C94.2935 302.424 95.1471 302.135 95.1471 301.78C95.1471 301.424 94.2935 301.135 93.2405 301.135C92.1876 301.135 91.334 301.424 91.334 301.78C91.334 302.135 92.1876 302.424 93.2405 302.424Z" stroke="#219CDC" stroke-width="0.463758" stroke-linejoin="round"/>
<path id="Vector_238" d="M157.123 298.23C157.931 298.23 158.585 297.942 158.585 297.586C158.585 297.231 157.931 296.942 157.123 296.942C156.316 296.942 155.661 297.231 155.661 297.586C155.661 297.942 156.316 298.23 157.123 298.23Z" stroke="#219CDC" stroke-width="0.405789" stroke-linejoin="round"/>
<path id="Vector_239" d="M91.3334 301.78L89.5234 328.117" stroke="#219CDC" stroke-width="0.405789" stroke-linejoin="round"/>
<path id="Vector_240" d="M95.1983 301.779L93.2402 329.309" stroke="#219CDC" stroke-width="0.405789" stroke-linejoin="round"/>
<path id="Vector_241" d="M89.2208 332.568L85.7168 383.124C86.2487 383.435 86.8471 383.614 87.4622 383.646C88.0773 383.679 88.6913 383.564 89.2529 383.311L92.7891 333.676" stroke="#219CDC" stroke-width="0.405789" stroke-linejoin="round"/>
<path id="Vector_242" d="M155.654 297.586L153.361 318.449" stroke="#219CDC" stroke-width="0.405789" stroke-linejoin="round"/>
<path id="Vector_243" d="M158.585 297.586L156.575 318.455" stroke="#219CDC" stroke-width="0.405789" stroke-linejoin="round"/>
<path id="Vector_244" d="M91.7979 347.64C92.7833 347.679 94.8831 347.737 97.7623 347.743" stroke="#219CDC" stroke-width="0.405789" stroke-linejoin="round"/>
<path id="Vector_245" d="M88.0098 351.466C82.0389 349.675 73.1953 333.495 73.1953 333.495" stroke="#219CDC" stroke-width="0.405789" stroke-linejoin="round"/>
<path id="Vector_246" d="M88.3063 346.944C83.7009 345.656 73.2148 328.677 73.2148 328.677" stroke="#219CDC" stroke-width="0.41223" stroke-linejoin="round"/>
<path id="Vector_247" d="M124.885 321.045C114.502 321.953 104.1 322.294 93.7041 322.282" stroke="#219CDC" stroke-width="0.457317" stroke-linejoin="round"/>
<path id="Vector_248" d="M153.413 316.935C150.721 317.489 148.028 317.994 145.336 318.449" stroke="#219CDC" stroke-width="0.457317" stroke-linejoin="round"/>
<path id="Vector_249" d="M90.0193 320.845C89.4848 320.093 89.2029 319.191 89.2142 318.269L90.4251 300.878C90.4251 298.681 91.9581 296.897 93.8453 296.897C93.8453 296.897 128.866 298.34 154.024 293.715C155.886 293.374 157.438 294.701 157.438 296.897" stroke="#219CDC" stroke-width="0.457317" stroke-linejoin="round"/>
<path id="Vector_250" d="M123.178 324.24C110.882 325.154 99.9001 325.27 95.1917 325.27H93.5234" stroke="#219CDC" stroke-width="0.457317" stroke-linejoin="round"/>
<path id="Vector_251" d="M89.7749 324.439C88.7425 323.748 87.9018 322.807 87.3308 321.703C86.7598 320.599 86.4772 319.369 86.5093 318.127V317.998L87.7202 300.607C87.7911 296.743 90.5092 293.625 93.8457 293.625H93.9359C93.9874 293.625 99.1467 293.838 106.779 293.838C119.803 293.838 138.502 293.252 153.606 290.482C153.935 290.417 154.269 290.385 154.604 290.385C156.975 290.385 158.469 292.318 159.055 294.855C159.331 296.103 159.386 297.389 159.216 298.656C158.92 301.058 158.179 306.791 157.239 311.538" stroke="#219CDC" stroke-width="0.457317" stroke-linejoin="round"/>
<path id="Vector_252" d="M86.5155 318.456H80.332" stroke="#219CDC" stroke-width="0.386465" stroke-linejoin="round"/>
<path id="Vector_253" d="M70.2777 318.456C69.1763 318.456 68.4871 319.834 69.0281 320.955L70.2133 323.389" stroke="#219CDC" stroke-width="0.386465" stroke-linejoin="round"/>
<path id="Vector_254" d="M73.3887 318.456H74.8443" stroke="#219CDC" stroke-width="0.386465" stroke-linejoin="round"/>
<path id="Vector_255" d="M68.8419 320.053V322.964C68.8369 324.47 69.1099 325.963 69.647 327.37L70.1494 328.658" stroke="#219CDC" stroke-width="0.386465" stroke-linejoin="round"/>
<g id="Group_5" opacity="0.2">
<path id="Vector_256" opacity="0.2" d="M122.399 332.085C137.929 330.797 155.333 328.903 157.439 326.932C160.357 324.233 156.305 321.251 156.305 321.251L156.099 323.364C156.318 325.116 139.307 327.228 122.696 328.465" stroke="#219CDC" stroke-width="0.483082" stroke-linejoin="round"/>
<path id="Vector_257" opacity="0.2" d="M152.248 328.607L149.137 356.935" stroke="#219CDC" stroke-width="0.483082" stroke-linejoin="round"/>
<path id="Vector_258" opacity="0.2" d="M153.362 318.449L152.653 324.909" stroke="#219CDC" stroke-width="0.483082" stroke-linejoin="round"/>
<path id="Vector_259" opacity="0.2" d="M156.576 318.456L156.1 323.389" stroke="#219CDC" stroke-width="0.483082" stroke-linejoin="round"/>
<path id="Vector_260" opacity="0.2" d="M155.7 327.821L152.396 358.435" stroke="#219CDC" stroke-width="0.483082" stroke-linejoin="round"/>
<path id="Vector_261" opacity="0.2" d="M97.7881 347.743C103.43 347.743 112.042 347.608 120.976 346.764C132.248 345.701 144.048 343.543 151.062 339.267C151.629 338.919 141.819 330.249 141.819 330.249" stroke="#219CDC" stroke-width="0.483082" stroke-linejoin="round"/>
<path id="Vector_262" opacity="0.2" d="M150.483 344.677C135.346 352.484 109.421 352.709 97.3887 352.329" stroke="#219CDC" stroke-width="0.483082" stroke-linejoin="round"/>
<path id="Vector_263" opacity="0.2" d="M145.336 318.449C138.534 319.596 131.713 320.446 124.886 321.025" stroke="#219CDC" stroke-width="0.483082" stroke-linejoin="round"/>
<path id="Vector_264" opacity="0.2" d="M153.188 320.053C144.093 322.223 133.22 323.499 123.179 324.24" stroke="#219CDC" stroke-width="0.483082" stroke-linejoin="round"/>
<path id="Vector_265" opacity="0.2" d="M134.792 323.145L138.702 327.003" stroke="#219CDC" stroke-width="0.483082" stroke-linejoin="round"/>
<path id="Vector_266" opacity="0.2" d="M148.866 321.096L152.989 323.145" stroke="#219CDC" stroke-width="0.483082" stroke-linejoin="round"/>
</g>
<path id="Vector_267" d="M72.6031 312.71C62.001 313.354 52.8225 313.554 50.1816 312.987C42.8968 311.422 36.4621 297.445 32.3978 296.491C28.0951 295.487 28.1724 300.923 28.1724 300.923L27.5283 346.893C27.5283 346.893 28.5782 348.181 30.7489 347.292L31.277 300.543" stroke="#219CDC" stroke-width="0.405789" stroke-linejoin="round"/>
<path id="Vector_268" opacity="0.15" d="M74.4064 312.601L72.5771 312.71" stroke="#219CDC" stroke-width="0.405789" stroke-linejoin="round"/>
<path id="Vector_269" d="M80.571 312.169C78.5098 312.324 76.4487 312.472 74.4326 312.601" stroke="#219CDC" stroke-width="0.405789" stroke-linejoin="round"/>
<path id="Vector_270" d="M78.2715 315.931L80.2618 315.763" stroke="#219CDC" stroke-width="0.405789" stroke-linejoin="round"/>
<path id="Vector_271" opacity="0.15" d="M70.2773 316.555C72.7958 316.369 75.5011 316.156 78.2901 315.911" stroke="#219CDC" stroke-width="0.405789" stroke-linejoin="round"/>
<path id="Vector_272" d="M29.5508 298.707C29.5508 298.707 35.3478 304.762 40.7905 311.435C42.0548 312.978 43.5811 314.286 45.2993 315.299C48.3781 317.135 50.6904 317.348 55.3023 317.586C55.3023 317.586 61.6789 317.206 70.2842 316.568" stroke="#219CDC" stroke-width="0.405789" stroke-linejoin="round"/>
<path id="Vector_273" d="M51.1155 286.102C52.1685 286.102 53.0221 285.814 53.0221 285.458C53.0221 285.102 52.1685 284.814 51.1155 284.814C50.0626 284.814 49.209 285.102 49.209 285.458C49.209 285.814 50.0626 286.102 51.1155 286.102Z" stroke="#219CDC" stroke-width="0.463758" stroke-linejoin="round"/>
<path id="Vector_274" d="M114.998 281.909C115.806 281.909 116.46 281.62 116.46 281.265C116.46 280.909 115.806 280.621 114.998 280.621C114.191 280.621 113.536 280.909 113.536 281.265C113.536 281.62 114.191 281.909 114.998 281.909Z" stroke="#219CDC" stroke-width="0.405789" stroke-linejoin="round"/>
<path id="Vector_275" d="M49.2152 285.458L47.4053 311.795" stroke="#219CDC" stroke-width="0.405789" stroke-linejoin="round"/>
<path id="Vector_276" d="M53.0798 285.458L51.1152 312.987" stroke="#219CDC" stroke-width="0.405789" stroke-linejoin="round"/>
<path id="Vector_277" d="M47.1159 316.227L43.6055 366.783C44.1381 367.095 44.7377 367.274 45.3541 367.307C45.9704 367.339 46.5856 367.224 47.1481 366.97L50.6842 317.335" stroke="#219CDC" stroke-width="0.405789" stroke-linejoin="round"/>
<path id="Vector_278" opacity="0.19" d="M112.138 293.986L111.243 302.127" stroke="#219CDC" stroke-width="0.405789" stroke-linejoin="round"/>
<path id="Vector_279" d="M113.536 281.265L112.158 293.812L112.139 293.986" stroke="#219CDC" stroke-width="0.405789" stroke-linejoin="round"/>
<path id="Vector_280" opacity="0.19" d="M115.269 293.702L114.457 302.134" stroke="#219CDC" stroke-width="0.405789" stroke-linejoin="round"/>
<path id="Vector_281" d="M116.467 281.265L115.269 293.702" stroke="#219CDC" stroke-width="0.405789" stroke-linejoin="round"/>
<path id="Vector_282" d="M49.6982 331.318C50.6902 331.357 52.79 331.415 55.6627 331.421" stroke="#219CDC" stroke-width="0.405789" stroke-linejoin="round"/>
<path id="Vector_283" d="M55.2702 336.007C52.4039 335.924 50.3234 335.795 49.3701 335.73" stroke="#219CDC" stroke-width="0.405789" stroke-linejoin="round"/>
<path id="Vector_284" d="M45.8917 335.144C39.9208 333.354 31.0771 317.174 31.0771 317.174" stroke="#219CDC" stroke-width="0.405789" stroke-linejoin="round"/>
<path id="Vector_285" d="M46.1817 330.636C41.5828 329.347 31.0967 312.369 31.0967 312.369" stroke="#219CDC" stroke-width="0.41223" stroke-linejoin="round"/>
<path id="Vector_286" d="M82.7803 304.717C72.4037 305.631 62.0014 306.005 51.6055 305.96" stroke="#219CDC" stroke-width="0.457317" stroke-linejoin="round"/>
<path id="Vector_287" opacity="0.19" d="M111.288 300.614C108.605 301.168 105.914 301.672 103.218 302.127" stroke="#219CDC" stroke-width="0.457317" stroke-linejoin="round"/>
<path id="Vector_288" d="M47.9012 304.523C47.3666 303.772 47.0847 302.869 47.096 301.947L48.307 284.556C48.307 282.36 49.8399 280.576 51.7207 280.576C51.7207 280.576 86.7409 282.018 111.906 277.394C113.768 277.052 115.32 278.379 115.32 280.576" stroke="#219CDC" stroke-width="0.457317" stroke-linejoin="round"/>
<path id="Vector_289" d="M81.06 307.918C68.7576 308.832 57.7819 308.948 53.0671 308.948H51.4053" stroke="#219CDC" stroke-width="0.457317" stroke-linejoin="round"/>
<path id="Vector_290" opacity="0.17" d="M115.379 293.921C115.295 294.372 115.211 294.823 115.121 295.261" stroke="#219CDC" stroke-width="0.457317" stroke-linejoin="round"/>
<path id="Vector_291" d="M47.6566 308.092C46.625 307.399 45.7849 306.458 45.2141 305.355C44.6432 304.251 44.3601 303.022 44.3909 301.78V301.651L45.6019 284.26C45.6727 280.395 48.3909 277.278 51.7209 277.278H51.8175C51.8691 277.278 57.0219 277.49 64.6546 277.49C77.6849 277.49 96.3834 276.904 111.488 274.134C111.815 274.07 112.147 274.038 112.48 274.038C114.85 274.038 116.344 275.97 116.937 278.508C117.213 279.755 117.267 281.042 117.098 282.308C116.827 284.492 116.196 289.393 115.378 293.863" stroke="#219CDC" stroke-width="0.457317" stroke-linejoin="round"/>
<path id="Vector_292" d="M44.3973 302.134H38.2139" stroke="#219CDC" stroke-width="0.386465" stroke-linejoin="round"/>
<path id="Vector_293" d="M28.1595 302.134C27.0581 302.134 26.3689 303.512 26.91 304.633L28.0951 307.068" stroke="#219CDC" stroke-width="0.386465" stroke-linejoin="round"/>
<path id="Vector_294" d="M31.2705 302.134H32.7262" stroke="#219CDC" stroke-width="0.386465" stroke-linejoin="round"/>
<path id="Vector_295" d="M26.7423 303.731V306.643C26.7373 308.148 27.0103 309.642 27.5474 311.048L28.0498 312.337" stroke="#219CDC" stroke-width="0.386465" stroke-linejoin="round"/>
<g id="Group_6" opacity="0.2">
<path id="Vector_296" opacity="0.2" d="M86.7031 315.177C100.281 313.921 113.504 312.298 115.321 310.617C118.239 307.918 114.187 304.936 114.187 304.936L113.981 307.048C114.174 308.575 101.273 310.353 86.9286 311.621" stroke="#219CDC" stroke-width="0.483082" stroke-linejoin="round"/>
<path id="Vector_297" opacity="0.2" d="M110.129 312.285L107.012 340.606" stroke="#219CDC" stroke-width="0.483082" stroke-linejoin="round"/>
<path id="Vector_298" opacity="0.2" d="M111.244 302.127L110.535 308.588" stroke="#219CDC" stroke-width="0.483082" stroke-linejoin="round"/>
<path id="Vector_299" opacity="0.2" d="M114.457 302.134L113.98 307.068" stroke="#219CDC" stroke-width="0.483082" stroke-linejoin="round"/>
<path id="Vector_300" opacity="0.2" d="M113.582 311.499L110.277 342.114" stroke="#219CDC" stroke-width="0.483082" stroke-linejoin="round"/>
<path id="Vector_301" opacity="0.2" d="M70.0977 331.08C72.9189 330.932 75.8946 330.726 78.864 330.436C90.1423 329.367 101.936 327.215 108.957 322.938C109.524 322.591 99.7138 313.921 99.7138 313.921" stroke="#219CDC" stroke-width="0.483082" stroke-linejoin="round"/>
<path id="Vector_302" opacity="0.2" d="M108.364 328.355C97.8909 333.753 82.2583 335.524 69.6338 335.982" stroke="#219CDC" stroke-width="0.483082" stroke-linejoin="round"/>
<path id="Vector_303" opacity="0.2" d="M103.217 302.127C97.9742 303.012 92.7247 303.725 87.4688 304.266" stroke="#219CDC" stroke-width="0.483082" stroke-linejoin="round"/>
<path id="Vector_304" opacity="0.2" d="M111.07 303.731C103.234 305.483 95.2889 306.707 87.2891 307.396" stroke="#219CDC" stroke-width="0.483082" stroke-linejoin="round"/>
<path id="Vector_305" opacity="0.2" d="M92.6738 306.823L96.5836 310.681" stroke="#219CDC" stroke-width="0.483082" stroke-linejoin="round"/>
<path id="Vector_306" opacity="0.2" d="M106.747 304.768L110.869 306.823" stroke="#219CDC" stroke-width="0.483082" stroke-linejoin="round"/>
</g>
<path id="Vector_307" d="M55.6631 331.421C59.4182 331.421 64.4874 331.37 70.0976 331.08" stroke="#219CDC" stroke-width="0.483082" stroke-linejoin="round"/>
<path id="Vector_308" d="M69.6341 335.982C64.0046 336.188 58.9741 336.123 55.2705 335.982" stroke="#219CDC" stroke-width="0.483082" stroke-linejoin="round"/>
<path id="Vector_309" d="M86.9534 311.641C84.8472 311.828 82.7023 312.008 80.5703 312.169" stroke="#219CDC" stroke-width="0.457317" stroke-linejoin="round"/>
<path id="Vector_310" d="M80.2812 315.763C82.4004 315.583 84.5581 315.396 86.7223 315.196" stroke="#219CDC" stroke-width="0.457317" stroke-linejoin="round"/>
<path id="Vector_311" d="M87.4692 304.266C85.8976 304.433 84.3324 304.581 82.7607 304.717" stroke="#219CDC" stroke-width="0.457317" stroke-linejoin="round"/>
<path id="Vector_312" d="M87.2883 307.396C85.195 307.589 83.1209 307.763 81.0791 307.918" stroke="#219CDC" stroke-width="0.457317" stroke-linejoin="round"/>
</g>
<g id="Group_7" opacity="0.26">
<g id="Group_8" opacity="0.26">
<path id="Vector_313" opacity="0.26" d="M98.6377 393.307L99.3527 345.579C99.3527 345.579 99.2432 339.28 105.047 340.426C110.534 341.534 119.217 357.72 129.046 359.537C138.875 361.353 215.679 356.387 215.151 352.684L215.421 350.236C215.421 350.236 220.89 353.688 216.954 356.812C211.705 360.98 135.951 364.851 135.951 364.851C131.285 365.219 126.608 364.303 122.425 362.203C120.161 361.071 118.108 359.561 116.351 357.74C108.982 350.01 101.175 342.99 101.175 342.99" stroke="#219CDC" stroke-width="0.483082" stroke-linejoin="round"/>
<path id="Vector_314" opacity="0.26" d="M129.716 328.407C130.808 328.407 131.693 328.072 131.693 327.66C131.693 327.247 130.808 326.913 129.716 326.913C128.624 326.913 127.738 327.247 127.738 327.66C127.738 328.072 128.624 328.407 129.716 328.407Z" stroke="#219CDC" stroke-width="0.508846" stroke-linejoin="round"/>
<path id="Vector_315" opacity="0.26" d="M216.522 323.55C217.614 323.55 218.5 323.216 218.5 322.803C218.5 322.391 217.614 322.056 216.522 322.056C215.43 322.056 214.545 322.391 214.545 322.803C214.545 323.216 215.43 323.55 216.522 323.55Z" stroke="#219CDC" stroke-width="0.508846" stroke-linejoin="round"/>
<path id="Vector_316" opacity="0.26" d="M127.739 327.66L125.298 358.171" stroke="#219CDC" stroke-width="0.508846" stroke-linejoin="round"/>
<path id="Vector_317" opacity="0.26" d="M131.693 327.66L129.046 359.556" stroke="#219CDC" stroke-width="0.508846" stroke-linejoin="round"/>
<path id="Vector_318" opacity="0.26" d="M214.546 322.803L210.494 354.455" stroke="#219CDC" stroke-width="0.508846" stroke-linejoin="round"/>
<path id="Vector_319" opacity="0.26" d="M218.5 322.803L215.15 352.703" stroke="#219CDC" stroke-width="0.508846" stroke-linejoin="round"/>
<path id="Vector_320" opacity="0.26" d="M102.947 394.763L103.527 345.141" stroke="#219CDC" stroke-width="0.508846" stroke-linejoin="round"/>
<path id="Vector_321" opacity="0.26" d="M211.512 345.218C179.461 352.026 129.71 351.402 129.71 351.402" stroke="#219CDC" stroke-width="0.573257" stroke-linejoin="round"/>
<path id="Vector_322" opacity="0.26" d="M125.974 349.753C125.268 348.922 124.882 347.867 124.886 346.777L126.522 326.661C126.522 325.439 127.007 324.267 127.87 323.403C128.734 322.538 129.905 322.051 131.127 322.05C131.127 322.05 178.392 323.718 212.349 318.365C214.861 317.966 216.955 319.505 216.955 322.05" stroke="#219CDC" stroke-width="0.573257" stroke-linejoin="round"/>
<path id="Vector_323" opacity="0.26" d="M211.215 348.832C183.866 354.435 144.485 354.873 132.943 354.873C130.701 354.873 129.445 354.873 129.445 354.873" stroke="#219CDC" stroke-width="0.573257" stroke-linejoin="round"/>
<path id="Vector_324" opacity="0.26" d="M125.639 353.914C124.309 353.21 123.196 352.157 122.42 350.867C121.643 349.578 121.233 348.102 121.233 346.597V346.448L122.869 326.314C122.917 324.153 123.807 322.097 125.35 320.584C126.893 319.071 128.966 318.222 131.127 318.217H131.256C131.327 318.217 138.283 318.462 148.582 318.462C166.16 318.462 191.396 317.786 211.776 314.597C212.221 314.526 212.671 314.489 213.122 314.488C216.343 314.488 218.326 316.755 219.132 319.641C219.504 321.077 219.578 322.574 219.351 324.04C218.951 326.829 217.953 333.47 216.684 338.983" stroke="#219CDC" stroke-width="0.573257" stroke-linejoin="round"/>
<path id="Vector_325" opacity="0.26" d="M121.24 346.977H112.898" stroke="#219CDC" stroke-width="0.483082" stroke-linejoin="round"/>
<path id="Vector_326" opacity="0.26" d="M99.3273 346.977C98.987 346.974 98.6519 347.062 98.3562 347.23C98.0605 347.399 97.8146 347.642 97.6433 347.937C97.472 348.231 97.3815 348.565 97.3809 348.905C97.3802 349.246 97.4696 349.58 97.6398 349.875L99.2436 352.703" stroke="#219CDC" stroke-width="0.483082" stroke-linejoin="round"/>
<path id="Vector_327" opacity="0.26" d="M103.526 346.977H105.491" stroke="#219CDC" stroke-width="0.483082" stroke-linejoin="round"/>
<path id="Vector_328" opacity="0.26" d="M97.3887 348.832V352.207C97.3867 353.965 97.7577 355.704 98.4772 357.308L99.1536 358.828" stroke="#219CDC" stroke-width="0.483082" stroke-linejoin="round"/>
<path id="Vector_329" opacity="0.26" d="M205.386 350.036L210.944 352.419" stroke="#219CDC" stroke-width="0.483082" stroke-linejoin="round"/>
<path id="Vector_330" opacity="0.26" d="M122.714 328.491C109.027 329.528 95.6101 330.017 92.3187 329.309C85.0339 327.743 78.5992 313.766 74.5349 312.813C70.2387 311.808 70.316 317.245 70.316 317.245L69.6719 363.215C69.6719 363.215 70.7153 364.503 72.8924 363.614L73.4206 316.864" stroke="#219CDC" stroke-width="0.405789" stroke-linejoin="round"/>
<path id="Vector_331" opacity="0.26" d="M71.6689 315.029C71.6689 315.029 77.4659 321.083 82.9087 327.756C84.1749 329.298 85.7008 330.605 87.4174 331.621C90.4963 333.45 92.8086 333.663 97.4204 333.901C97.4204 333.901 109.24 333.199 122.405 332.091" stroke="#219CDC" stroke-width="0.405789" stroke-linejoin="round"/>
<path id="Vector_332" opacity="0.26" d="M93.2405 302.424C94.2935 302.424 95.1471 302.135 95.1471 301.78C95.1471 301.424 94.2935 301.135 93.2405 301.135C92.1876 301.135 91.334 301.424 91.334 301.78C91.334 302.135 92.1876 302.424 93.2405 302.424Z" stroke="#219CDC" stroke-width="0.463758" stroke-linejoin="round"/>
<path id="Vector_333" opacity="0.26" d="M157.123 298.23C157.931 298.23 158.585 297.942 158.585 297.586C158.585 297.231 157.931 296.942 157.123 296.942C156.316 296.942 155.661 297.231 155.661 297.586C155.661 297.942 156.316 298.23 157.123 298.23Z" stroke="#219CDC" stroke-width="0.405789" stroke-linejoin="round"/>
<path id="Vector_334" opacity="0.26" d="M91.3334 301.78L89.5234 328.117" stroke="#219CDC" stroke-width="0.405789" stroke-linejoin="round"/>
<path id="Vector_335" opacity="0.26" d="M95.1983 301.779L93.2402 329.309" stroke="#219CDC" stroke-width="0.405789" stroke-linejoin="round"/>
<path id="Vector_336" opacity="0.26" d="M89.2208 332.568L85.7168 383.124C86.2487 383.435 86.8471 383.614 87.4622 383.646C88.0773 383.679 88.6913 383.564 89.2529 383.311L92.7891 333.676" stroke="#219CDC" stroke-width="0.405789" stroke-linejoin="round"/>
<path id="Vector_337" opacity="0.26" d="M155.654 297.586L153.361 318.449" stroke="#219CDC" stroke-width="0.405789" stroke-linejoin="round"/>
<path id="Vector_338" opacity="0.26" d="M158.585 297.586L156.575 318.455" stroke="#219CDC" stroke-width="0.405789" stroke-linejoin="round"/>
<path id="Vector_339" opacity="0.26" d="M91.7979 347.64C92.7833 347.679 94.8831 347.737 97.7623 347.743" stroke="#219CDC" stroke-width="0.405789" stroke-linejoin="round"/>
<path id="Vector_340" opacity="0.26" d="M88.0098 351.466C82.0389 349.675 73.1953 333.495 73.1953 333.495" stroke="#219CDC" stroke-width="0.405789" stroke-linejoin="round"/>
<path id="Vector_341" opacity="0.26" d="M88.3063 346.944C83.7009 345.656 73.2148 328.677 73.2148 328.677" stroke="#219CDC" stroke-width="0.41223" stroke-linejoin="round"/>
<path id="Vector_342" opacity="0.26" d="M124.885 321.045C114.502 321.953 104.1 322.294 93.7041 322.282" stroke="#219CDC" stroke-width="0.457317" stroke-linejoin="round"/>
<path id="Vector_343" opacity="0.26" d="M153.413 316.935C150.721 317.489 148.028 317.994 145.336 318.449" stroke="#219CDC" stroke-width="0.457317" stroke-linejoin="round"/>
<path id="Vector_344" opacity="0.26" d="M90.0193 320.845C89.4848 320.093 89.2029 319.191 89.2142 318.269L90.4251 300.878C90.4251 298.681 91.9581 296.897 93.8453 296.897C93.8453 296.897 128.866 298.34 154.024 293.715C155.886 293.374 157.438 294.701 157.438 296.897" stroke="#219CDC" stroke-width="0.457317" stroke-linejoin="round"/>
<path id="Vector_345" opacity="0.26" d="M123.178 324.24C110.882 325.154 99.9001 325.27 95.1917 325.27H93.5234" stroke="#219CDC" stroke-width="0.457317" stroke-linejoin="round"/>
<path id="Vector_346" opacity="0.26" d="M89.7749 324.439C88.7425 323.748 87.9018 322.807 87.3308 321.703C86.7598 320.599 86.4772 319.369 86.5093 318.127V317.998L87.7202 300.607C87.7911 296.743 90.5092 293.625 93.8457 293.625H93.9359C93.9874 293.625 99.1467 293.838 106.779 293.838C119.803 293.838 138.502 293.252 153.606 290.482C153.935 290.417 154.269 290.385 154.604 290.385C156.975 290.385 158.469 292.318 159.055 294.855C159.331 296.103 159.386 297.389 159.216 298.656C158.92 301.058 158.179 306.791 157.239 311.538" stroke="#219CDC" stroke-width="0.457317" stroke-linejoin="round"/>
<path id="Vector_347" opacity="0.26" d="M86.5155 318.456H80.332" stroke="#219CDC" stroke-width="0.386465" stroke-linejoin="round"/>
<path id="Vector_348" opacity="0.26" d="M70.2777 318.456C69.1763 318.456 68.4871 319.834 69.0281 320.955L70.2133 323.389" stroke="#219CDC" stroke-width="0.386465" stroke-linejoin="round"/>
<path id="Vector_349" opacity="0.26" d="M73.3887 318.456H74.8443" stroke="#219CDC" stroke-width="0.386465" stroke-linejoin="round"/>
<path id="Vector_350" opacity="0.26" d="M68.8419 320.053V322.964C68.8369 324.47 69.1099 325.963 69.647 327.37L70.1494 328.658" stroke="#219CDC" stroke-width="0.386465" stroke-linejoin="round"/>
<g id="Group_9" opacity="0.2">
<path id="Vector_351" opacity="0.2" d="M122.399 332.085C137.929 330.797 155.333 328.903 157.439 326.932C160.357 324.233 156.305 321.251 156.305 321.251L156.099 323.364C156.318 325.116 139.307 327.228 122.696 328.465" stroke="#219CDC" stroke-width="0.483082" stroke-linejoin="round"/>
<path id="Vector_352" opacity="0.2" d="M152.248 328.607L149.137 356.935" stroke="#219CDC" stroke-width="0.483082" stroke-linejoin="round"/>
<path id="Vector_353" opacity="0.2" d="M153.362 318.449L152.653 324.909" stroke="#219CDC" stroke-width="0.483082" stroke-linejoin="round"/>
<path id="Vector_354" opacity="0.2" d="M156.576 318.456L156.1 323.389" stroke="#219CDC" stroke-width="0.483082" stroke-linejoin="round"/>
<path id="Vector_355" opacity="0.2" d="M155.7 327.821L152.396 358.435" stroke="#219CDC" stroke-width="0.483082" stroke-linejoin="round"/>
<path id="Vector_356" opacity="0.2" d="M97.7881 347.743C103.43 347.743 112.042 347.608 120.976 346.764C132.248 345.701 144.048 343.543 151.062 339.267C151.629 338.919 141.819 330.249 141.819 330.249" stroke="#219CDC" stroke-width="0.483082" stroke-linejoin="round"/>
<path id="Vector_357" opacity="0.2" d="M150.483 344.677C135.346 352.484 109.421 352.709 97.3887 352.329" stroke="#219CDC" stroke-width="0.483082" stroke-linejoin="round"/>
<path id="Vector_358" opacity="0.2" d="M145.336 318.449C138.534 319.596 131.713 320.446 124.886 321.025" stroke="#219CDC" stroke-width="0.483082" stroke-linejoin="round"/>
<path id="Vector_359" opacity="0.2" d="M153.188 320.053C144.093 322.223 133.22 323.499 123.179 324.24" stroke="#219CDC" stroke-width="0.483082" stroke-linejoin="round"/>
<path id="Vector_360" opacity="0.2" d="M134.792 323.145L138.702 327.003" stroke="#219CDC" stroke-width="0.483082" stroke-linejoin="round"/>
<path id="Vector_361" opacity="0.2" d="M148.866 321.096L152.989 323.145" stroke="#219CDC" stroke-width="0.483082" stroke-linejoin="round"/>
</g>
<path id="Vector_362" opacity="0.26" d="M72.6031 312.71C62.001 313.354 52.8225 313.554 50.1816 312.987C42.8968 311.422 36.4621 297.445 32.3978 296.491C28.0951 295.487 28.1724 300.923 28.1724 300.923L27.5283 346.893C27.5283 346.893 28.5782 348.181 30.7489 347.292L31.277 300.543" stroke="#219CDC" stroke-width="0.405789" stroke-linejoin="round"/>
<path id="Vector_363" opacity="0.15" d="M74.4064 312.601L72.5771 312.71" stroke="#219CDC" stroke-width="0.405789" stroke-linejoin="round"/>
<path id="Vector_364" opacity="0.26" d="M80.571 312.169C78.5098 312.324 76.4487 312.472 74.4326 312.601" stroke="#219CDC" stroke-width="0.405789" stroke-linejoin="round"/>
<path id="Vector_365" opacity="0.26" d="M78.2715 315.931L80.2618 315.763" stroke="#219CDC" stroke-width="0.405789" stroke-linejoin="round"/>
<path id="Vector_366" opacity="0.15" d="M70.2773 316.555C72.7958 316.369 75.5011 316.156 78.2901 315.911" stroke="#219CDC" stroke-width="0.405789" stroke-linejoin="round"/>
<path id="Vector_367" opacity="0.26" d="M29.5508 298.707C29.5508 298.707 35.3478 304.762 40.7905 311.435C42.0548 312.978 43.5811 314.286 45.2993 315.299C48.3781 317.135 50.6904 317.348 55.3023 317.586C55.3023 317.586 61.6789 317.206 70.2842 316.568" stroke="#219CDC" stroke-width="0.405789" stroke-linejoin="round"/>
<path id="Vector_368" opacity="0.26" d="M51.1155 286.102C52.1685 286.102 53.0221 285.814 53.0221 285.458C53.0221 285.102 52.1685 284.814 51.1155 284.814C50.0626 284.814 49.209 285.102 49.209 285.458C49.209 285.814 50.0626 286.102 51.1155 286.102Z" stroke="#219CDC" stroke-width="0.463758" stroke-linejoin="round"/>
<path id="Vector_369" opacity="0.26" d="M114.998 281.909C115.806 281.909 116.46 281.62 116.46 281.265C116.46 280.909 115.806 280.621 114.998 280.621C114.191 280.621 113.536 280.909 113.536 281.265C113.536 281.62 114.191 281.909 114.998 281.909Z" stroke="#219CDC" stroke-width="0.405789" stroke-linejoin="round"/>
<path id="Vector_370" opacity="0.26" d="M49.2152 285.458L47.4053 311.795" stroke="#219CDC" stroke-width="0.405789" stroke-linejoin="round"/>
<path id="Vector_371" opacity="0.26" d="M53.0798 285.458L51.1152 312.987" stroke="#219CDC" stroke-width="0.405789" stroke-linejoin="round"/>
<path id="Vector_372" opacity="0.26" d="M47.1159 316.227L43.6055 366.783C44.1381 367.095 44.7377 367.274 45.3541 367.307C45.9704 367.339 46.5856 367.224 47.1481 366.97L50.6842 317.335" stroke="#219CDC" stroke-width="0.405789" stroke-linejoin="round"/>
<path id="Vector_373" opacity="0.19" d="M112.138 293.986L111.243 302.127" stroke="#219CDC" stroke-width="0.405789" stroke-linejoin="round"/>
<path id="Vector_374" opacity="0.26" d="M113.536 281.265L112.158 293.812L112.139 293.986" stroke="#219CDC" stroke-width="0.405789" stroke-linejoin="round"/>
<path id="Vector_375" opacity="0.19" d="M115.269 293.702L114.457 302.134" stroke="#219CDC" stroke-width="0.405789" stroke-linejoin="round"/>
<path id="Vector_376" opacity="0.26" d="M116.467 281.265L115.269 293.702" stroke="#219CDC" stroke-width="0.405789" stroke-linejoin="round"/>
<path id="Vector_377" opacity="0.26" d="M49.6982 331.318C50.6902 331.357 52.79 331.415 55.6627 331.421" stroke="#219CDC" stroke-width="0.405789" stroke-linejoin="round"/>
<path id="Vector_378" opacity="0.26" d="M55.2702 336.007C52.4039 335.924 50.3234 335.795 49.3701 335.73" stroke="#219CDC" stroke-width="0.405789" stroke-linejoin="round"/>
<path id="Vector_379" opacity="0.26" d="M45.8917 335.144C39.9208 333.354 31.0771 317.174 31.0771 317.174" stroke="#219CDC" stroke-width="0.405789" stroke-linejoin="round"/>
<path id="Vector_380" opacity="0.26" d="M46.1817 330.636C41.5828 329.347 31.0967 312.369 31.0967 312.369" stroke="#219CDC" stroke-width="0.41223" stroke-linejoin="round"/>
<path id="Vector_381" opacity="0.26" d="M82.7803 304.717C72.4037 305.631 62.0014 306.005 51.6055 305.96" stroke="#219CDC" stroke-width="0.457317" stroke-linejoin="round"/>
<path id="Vector_382" opacity="0.19" d="M111.288 300.614C108.605 301.168 105.914 301.672 103.218 302.127" stroke="#219CDC" stroke-width="0.457317" stroke-linejoin="round"/>
<path id="Vector_383" opacity="0.26" d="M47.9012 304.523C47.3666 303.772 47.0847 302.869 47.096 301.947L48.307 284.556C48.307 282.36 49.8399 280.576 51.7207 280.576C51.7207 280.576 86.7409 282.018 111.906 277.394C113.768 277.052 115.32 278.379 115.32 280.576" stroke="#219CDC" stroke-width="0.457317" stroke-linejoin="round"/>
<path id="Vector_384" opacity="0.26" d="M81.06 307.918C68.7576 308.832 57.7819 308.948 53.0671 308.948H51.4053" stroke="#219CDC" stroke-width="0.457317" stroke-linejoin="round"/>
<path id="Vector_385" opacity="0.17" d="M115.379 293.921C115.295 294.372 115.211 294.823 115.121 295.261" stroke="#219CDC" stroke-width="0.457317" stroke-linejoin="round"/>
<path id="Vector_386" opacity="0.26" d="M47.6566 308.092C46.625 307.399 45.7849 306.458 45.2141 305.355C44.6432 304.251 44.3601 303.022 44.3909 301.78V301.651L45.6019 284.26C45.6727 280.395 48.3909 277.278 51.7209 277.278H51.8175C51.8691 277.278 57.0219 277.49 64.6546 277.49C77.6849 277.49 96.3834 276.904 111.488 274.134C111.815 274.07 112.147 274.038 112.48 274.038C114.85 274.038 116.344 275.97 116.937 278.508C117.213 279.755 117.267 281.042 117.098 282.308C116.827 284.492 116.196 289.393 115.378 293.863" stroke="#219CDC" stroke-width="0.457317" stroke-linejoin="round"/>
<path id="Vector_387" opacity="0.26" d="M44.3973 302.134H38.2139" stroke="#219CDC" stroke-width="0.386465" stroke-linejoin="round"/>
<path id="Vector_388" opacity="0.26" d="M28.1595 302.134C27.0581 302.134 26.3689 303.512 26.91 304.633L28.0951 307.068" stroke="#219CDC" stroke-width="0.386465" stroke-linejoin="round"/>
<path id="Vector_389" opacity="0.26" d="M31.2705 302.134H32.7262" stroke="#219CDC" stroke-width="0.386465" stroke-linejoin="round"/>
<path id="Vector_390" opacity="0.26" d="M26.7423 303.731V306.643C26.7373 308.148 27.0103 309.642 27.5474 311.048L28.0498 312.337" stroke="#219CDC" stroke-width="0.386465" stroke-linejoin="round"/>
<g id="Group_10" opacity="0.2">
<path id="Vector_391" opacity="0.2" d="M86.7031 315.177C100.281 313.921 113.504 312.298 115.321 310.617C118.239 307.918 114.187 304.936 114.187 304.936L113.981 307.048C114.174 308.575 101.273 310.353 86.9286 311.621" stroke="#219CDC" stroke-width="0.483082" stroke-linejoin="round"/>
<path id="Vector_392" opacity="0.2" d="M110.129 312.285L107.012 340.606" stroke="#219CDC" stroke-width="0.483082" stroke-linejoin="round"/>
<path id="Vector_393" opacity="0.2" d="M111.244 302.127L110.535 308.588" stroke="#219CDC" stroke-width="0.483082" stroke-linejoin="round"/>
<path id="Vector_394" opacity="0.2" d="M114.457 302.134L113.98 307.068" stroke="#219CDC" stroke-width="0.483082" stroke-linejoin="round"/>
<path id="Vector_395" opacity="0.2" d="M113.582 311.499L110.277 342.114" stroke="#219CDC" stroke-width="0.483082" stroke-linejoin="round"/>
<path id="Vector_396" opacity="0.2" d="M70.0977 331.08C72.9189 330.932 75.8946 330.726 78.864 330.436C90.1423 329.367 101.936 327.215 108.957 322.938C109.524 322.591 99.7138 313.921 99.7138 313.921" stroke="#219CDC" stroke-width="0.483082" stroke-linejoin="round"/>
<path id="Vector_397" opacity="0.2" d="M108.364 328.355C97.8909 333.753 82.2583 335.524 69.6338 335.982" stroke="#219CDC" stroke-width="0.483082" stroke-linejoin="round"/>
<path id="Vector_398" opacity="0.2" d="M103.217 302.127C97.9742 303.012 92.7247 303.725 87.4688 304.266" stroke="#219CDC" stroke-width="0.483082" stroke-linejoin="round"/>
<path id="Vector_399" opacity="0.2" d="M111.07 303.731C103.234 305.483 95.2889 306.707 87.2891 307.396" stroke="#219CDC" stroke-width="0.483082" stroke-linejoin="round"/>
<path id="Vector_400" opacity="0.2" d="M92.6738 306.823L96.5836 310.681" stroke="#219CDC" stroke-width="0.483082" stroke-linejoin="round"/>
<path id="Vector_401" opacity="0.2" d="M106.747 304.768L110.869 306.823" stroke="#219CDC" stroke-width="0.483082" stroke-linejoin="round"/>
</g>
<path id="Vector_402" opacity="0.26" d="M55.6631 331.421C59.4182 331.421 64.4874 331.37 70.0976 331.08" stroke="#219CDC" stroke-width="0.483082" stroke-linejoin="round"/>
<path id="Vector_403" opacity="0.26" d="M69.6341 335.982C64.0046 336.188 58.9741 336.123 55.2705 335.982" stroke="#219CDC" stroke-width="0.483082" stroke-linejoin="round"/>
<path id="Vector_404" opacity="0.26" d="M86.9534 311.641C84.8472 311.828 82.7023 312.008 80.5703 312.169" stroke="#219CDC" stroke-width="0.457317" stroke-linejoin="round"/>
<path id="Vector_405" opacity="0.26" d="M80.2812 315.763C82.4004 315.583 84.5581 315.396 86.7223 315.196" stroke="#219CDC" stroke-width="0.457317" stroke-linejoin="round"/>
<path id="Vector_406" opacity="0.26" d="M87.4692 304.266C85.8976 304.433 84.3324 304.581 82.7607 304.717" stroke="#219CDC" stroke-width="0.457317" stroke-linejoin="round"/>
<path id="Vector_407" opacity="0.26" d="M87.2883 307.396C85.195 307.589 83.1209 307.763 81.0791 307.918" stroke="#219CDC" stroke-width="0.457317" stroke-linejoin="round"/>
</g>
</g>
<path id="Vector_408" opacity="0.3" d="M189.058 348.832L189.264 344.606C189.341 343.885 189.908 343.402 191.331 344.014L205.418 350.036" stroke="#219CDC" stroke-width="0.483082" stroke-linejoin="round"/>
<path id="Vector_409" opacity="0.29" d="M211.511 348.323L190.636 340.052C190.227 339.891 189.785 339.83 189.348 339.873C188.91 339.917 188.49 340.064 188.121 340.303C187.752 340.541 187.445 340.865 187.226 341.246C187.007 341.627 186.882 342.055 186.861 342.494L186.391 352.419L180.916 347.363C179.202 345.951 177.043 345.193 174.823 345.225L121.239 346.977" stroke="#219CDC" stroke-width="0.483082" stroke-linejoin="round"/>
<path id="Vector_410" d="M52.1006 45.5207L255.433 76.6311L254.222 287.622" stroke="#219CDC" stroke-width="0.483082" stroke-linejoin="round"/>
<path id="Vector_411" d="M55.6631 11.2605L313.191 52.1614L311.716 311.499" stroke="#219CDC" stroke-width="0.483082" stroke-linejoin="round"/>
<path id="Vector_412" d="M44.5322 82.4218L199.37 100.392L197.482 275.764" stroke="#219CDC" stroke-width="0.483082" stroke-linejoin="round"/>
<path id="Vector_413" d="M140.673 192.571L-157.473 189.537" stroke="#219CDC" stroke-width="0.483082" stroke-linejoin="round"/>
<path id="Vector_414" d="M49.1699 92.5793L49.273 277.31" stroke="#219CDC" stroke-width="0.457317" stroke-linejoin="round"/>
<path id="Vector_415" d="M128.918 254.476H162.959" stroke="#219CDC" stroke-width="0.483082" stroke-linejoin="round"/>
<path id="Vector_416" d="M167.287 254.476H183.313" stroke="#219CDC" stroke-width="0.483082" stroke-linejoin="round"/>
</g>
<defs>
<clipPath id="clip0_21_2858">
<rect width="467" height="351" fill="white" transform="translate(-1)"/>
</clipPath>
</defs>
</svg>
